<?xml version="1.0" encoding="utf-8"?>
<!-- Generator: Adobe Illustrator 25.2.0, SVG Export Plug-In . SVG Version: 6.00 Build 0)  -->
<svg version="1.1" id="Layer_1" xmlns="http://www.w3.org/2000/svg" xmlns:xlink="http://www.w3.org/1999/xlink" x="0px" y="0px"
	 viewBox="0 0 138.2 154.6" style="enable-background:new 0 0 138.2 154.6;" xml:space="preserve">
<style type="text/css">
	.st0{fill:#E3BB7E;}
	.st1{fill:#E6C48E;}
	.st2{fill:#EACC9E;}
	.st3{fill:#FDFCFA;}
	.st4{fill:#E0B573;}
	.st5{fill:#E5C38E;}
	.st6{fill:#FDF9F3;}
	.st7{fill:#ECD0A5;}
	.st8{fill:#E7C592;}
	.st9{fill:#E4C18B;}
	.st10{fill:#E1B675;}
	.st11{fill:#EACC9C;}
	.st12{fill:#EED7B4;}
	.st13{fill:#E8C999;}
	.st14{fill:#E6C692;}
	.st15{fill:#E4C089;}
	.st16{fill:#E7C591;}
	.st17{fill:#EFDABB;}
	.st18{fill:#E8C796;}
	.st19{fill:#FDFAF4;}
	.st20{fill:#EBCDA0;}
	.st21{fill:#E4BF86;}
	.st22{fill:#E6C58F;}
	.st23{fill:#F2E1C6;}
	.st24{fill:#E4BD83;}
	.st25{fill:#FCF8F1;}
	.st26{fill:#E1B878;}
	.st27{fill:#E3B97B;}
	.st28{fill:#FCFAF7;}
	.st29{fill:#EACB9D;}
	.st30{fill:#ECD1A9;}
	.st31{fill:#F0DDBF;}
	.st32{fill:#F4E5CF;}
	.st33{fill:#EFDAB8;}
	.st34{fill:#E5C28B;}
	.st35{fill:#ECD1A8;}
	.st36{fill:#E4BF87;}
	.st37{fill:#E8C795;}
	.st38{fill:#EED7B3;}
	.st39{fill:#F0DDBE;}
	.st40{fill:#E6C38C;}
	.st41{fill:#E4C18A;}
	.st42{fill:#F1DFC4;}
	.st43{fill:#EACB9C;}
	.st44{fill:#EACD9F;}
	.st45{fill:#E9CA9A;}
	.st46{fill:#FDF8F3;}
	.st47{fill:#E4BE85;}
	.st48{fill:#F2DFC4;}
	.st49{fill:#E5C189;}
	.st50{fill:#F0DCBD;}
	.st51{fill:#EDD1AA;}
	.st52{fill:#EED6B2;}
	.st53{fill:#F4E5CE;}
	.st54{fill:#E7C895;}
	.st55{fill:#EBCFA3;}
	.st56{fill:#EDD4AF;}
	.st57{fill:#ECD0A4;}
	.st58{fill:#EBCEA4;}
	.st59{fill:#E4BC81;}
	.st60{fill:#E6C28B;}
	.st61{fill:#DFB16C;}
	.st62{fill:#EDD5AF;}
	.st63{fill:#F0DBBC;}
	.st64{fill:#ECD2AB;}
	.st65{fill:#ECD3AC;}
	.st66{fill:#E6C48F;}
	.st67{fill:#FCFAF5;}
	.st68{fill:#FCF8F2;}
	.st69{fill:#F0DCBE;}
	.st70{fill:#E6C28D;}
	.st71{fill:#F9F3E8;}
	.st72{fill:#EBCE9F;}
	.st73{fill:#F2E1C7;}
	.st74{fill:#FDFAF5;}
	.st75{fill:#FAF5ED;}
	.st76{fill:#E6C694;}
	.st77{fill:#FAF4EB;}
	.st78{fill:#FAF3EA;}
	.st79{fill:#EED7B5;}
	.st80{fill:#E8C998;}
	.st81{fill:#E3BD82;}
	.st82{fill:#E5C087;}
	.st83{fill:#E4BC80;}
	.st84{fill:#F4E6D3;}
	.st85{fill:#F3E2C8;}
	.st86{fill:#F9F2E7;}
	.st87{fill:#F1DFC2;}
	.st88{fill:#EED6B0;}
	.st89{fill:#EBCEA1;}
	.st90{fill:#ECD0A6;}
	.st91{fill:#EED8B5;}
	.st92{fill:#F8EFE3;}
	.st93{fill:#F3E4CC;}
	.st94{fill:#F3E6D1;}
	.st95{fill:#F5E9D7;}
	.st96{fill:#F4E6D1;}
	.st97{fill:#FCF6EE;}
	.st98{fill:#F2E1C8;}
	.st99{fill:#F3E5CD;}
	.st100{fill:#E7C691;}
	.st101{fill:#EBD2A9;}
	.st102{fill:#F9F1E5;}
	.st103{fill:#F7EEDF;}
	.st104{fill:#EBCEA2;}
	.st105{fill:#ECD2A9;}
	.st106{fill:#E3BE83;}
	.st107{fill:#F3E3CB;}
	.st108{fill:#F7ECDB;}
	.st109{fill:#F9F3EA;}
	.st110{fill:#E7C894;}
	.st111{fill:#F3E6D0;}
	.st112{fill:#F5EAD9;}
	.st113{fill:#ECCFA3;}
	.st114{fill:#F8EFE2;}
	.st115{fill:#FAF5EC;}
	.st116{fill:#E4C088;}
	.st117{fill:#E1B776;}
	.st118{fill:#DFB470;}
	.st119{fill:#E7C48F;}
	.st120{fill:#E0B471;}
	.st121{fill:#E0B574;}
	.st122{fill:#E3BA7C;}
	.st123{fill:#F2E0C5;}
	.st124{fill:#E0B470;}
	.st125{fill:#E3B879;}
	.st126{fill:#E9CA99;}
</style>
<g>
	<path class="st0" d="M107.6,116.4c-0.1,0.1-0.2,0.2-0.3,0.3c-0.6,1.1-0.2,2.1,0.6,2.9c-0.1,0.4-0.6,0.9,0.5,1.1
		c0.6,0.1,1,1,1.4,1.5c0.6,0.8,1,0.4,1.6,0.3c0-0.9,1.4-1.8-0.2-2.6c-0.5-0.7-1.3-0.1-2.1-0.4c0.9-0.8,1.8,0,2.6-0.4
		c0.6-0.5,0.5-1.6,1.4-1.9c0.3-0.1,0.2-0.6-0.1-0.9c-0.7-0.1-1.5,0-1.2-1.2c0.1-0.3-0.2-0.6-0.5-0.8c-0.1-0.1-0.3-0.1-0.4-0.1
		c-0.5,0.2-0.6,0.8-1.2,0.7C108.9,115.3,108.4,116.1,107.6,116.4z"/>
	<path class="st1" d="M33.1,92c-0.3-3.1-2.6-4.4-5.2-4.8c-1.2-0.2-2.3,0.8-3.3,1.6c-0.2,0.3-0.6,0.6-0.4,1.1
		c0.1,0.1,0.2,0.2,0.4,0.2c0.5-0.2,1-0.4,1.2,0.4c0.2,0.6,0.5,1.2,1.2,1.4c0.6,0.1,0.7-0.3,0.8-0.7c0.1-0.3,0.2-0.7,0.7-0.7
		c0.2,0,0.4,0,0.6,0c0.6-0.2,1.4,1.1,1.9-0.2c0.2-0.1-0.1-0.4,0.2-0.5c0,0.1,0.1,0.3,0,0.4c-0.2,0.3-0.5,0.5-0.5,0.9
		c0,0.4,0,0.7-0.1,1.1c0,0.2,0.1,0.4,0.2,0.5c0.1,0.1,0.2,0.1,0.4,0.1c0.1-0.1,0.2-0.2,0.4-0.3c-0.1,0.1-0.1,0.1-0.2,0.2
		c-0.1,0.7,0.2,1.2,0.8,1.5c0.1,0,0.3,0,0.4,0C33,93.5,32.9,92.6,33.1,92z"/>
	<path class="st0" d="M117.1,116.1c-0.6-0.7-1.1-1.4-1.7-2.1c-0.1-0.1-0.2-0.2-0.3-0.2c-1-0.1-0.9,0.4-0.6,1
		c0.4,0.9,0.6,1.7-0.8,1.7c-0.6,0.9-1.3,1.7-2,2.5c-0.4,0.1-0.6,0.3-0.2,0.7c0.5,0.4,0.9,0.7,0.3,1.4c-0.3,0.3-0.4,0.9-0.2,1.3
		c0.9,0.2,1.8,0,2.6,0.3c0.4-0.4,0.5-1,0.9-1.4c1.5-0.5,2.2-1.4,2.3-3.2c-0.7-0.5-1.5,0.2-2.2-0.1c0.4-0.6,1.1-0.4,1.5-0.8
		C117,116.9,117.2,116.6,117.1,116.1z"/>
	<path class="st2" d="M100.6,67.5c0.1,0.1,0.2,0.2,0.2,0.3c0.5,2.5,1.9,3.4,4.5,2.6c-0.4-0.6-1.2-0.3-1.6-0.7
		c0.3-0.4,0.8-0.3,1.1-0.4c0.6-0.1,1-0.3,1.3-0.8c0.4-0.6,0.9-0.5,1.4-0.2c0.2,0.1,0.3,0.2,0.5,0.2c0.1,0,0.1-0.1,0.2-0.1
		c-0.1-1.3,0-2.7-0.9-3.8c-0.7,1.2-1.9,1.7-3,2.5c-0.1,0-0.1,0.2-0.1,0.3c-0.1,0.2-0.2,0.3-0.3,0c0-0.3,0.1-0.6,0.1-1
		c-0.1-0.6-0.3-1-0.7-1.5c-1.3-0.4-0.6,1.1-1.2,1.3c-0.6,0-0.4-1.1-1.2-0.9c-0.1,0.3-0.2,0.6-0.3,0.9
		C100.9,66.6,100.4,67,100.6,67.5z"/>
	<path class="st3" d="M78.8,97.2c0.2,0.4,0.7,0.7,0.4,1.4c-0.2,0.5,0.2,0.8,0.6,0.5c0.5-0.3,0.9-0.5,1.6-0.3
		c0.7,0.2,0.9-1.1,1.8-0.7c0-0.6,0.9-1.1,0.2-1.9c-0.5-0.5,0.2-0.9,0.4-1.5c-0.8,0-1.5-0.5-2.2,0.2c-0.5,0.4-0.6-0.2-0.9-0.3
		c-0.7-0.4-1.1-0.2-1.2,0.5c0,0.1,0,0.1,0,0.2c0.2,0.3,0.4,0.6,0.7,0.5c1-0.2,0,0.4,0.2,0.5c0,0.3,0.3,0.8-0.4,0.5
		c-0.4,0-0.7,0-1,0.2C78.9,97.1,78.8,97.2,78.8,97.2z"/>
	<path class="st4" d="M98,114.6c-0.5-0.4-1,0-1.4,0.2c-0.5,0.3-0.9,0.6-1.2-0.2c0,0.5,0,0.9,0,1.4c-0.1,1.4,0.5,2.1,1.8,2
		c0.6-0.1,1,0.2,1.5,0.4c0.2,0.1,0.4,0.1,0.7,0.1c1-0.1,1.7-0.4,1.6-1.6c0-0.1,0-0.2,0-0.2C99.9,116.1,99.4,114.7,98,114.6z"/>
	<path class="st5" d="M55.5,128.3c1.2,0,1.5-1.1,2.2-1.6c0.1,0,0.1-0.2,0-0.3c-0.9-0.6-0.7-2.1-2-2.5c-1.3-0.4-2.2,0-3.1,0.9
		c-0.3,0.3-0.6,0.6-1,0.9c-0.1,0.4,0.2,0.4,0.4,0.4c0.1,0,0.2,0,0.4-0.1c0.4-0.1,0.7-0.5,1.1-0.3c0.6-0.3,1.2-0.3,2-0.2
		c-0.8,0.4-1.6,0.1-2,0.8c-0.4,0.5,0.2,1.1-0.2,1.6C54.1,128.4,54.8,128.6,55.5,128.3z"/>
	<path class="st6" d="M49.7,136.2c-0.6-0.5-1.1-1.6-2.2-0.6c-0.1,0-0.3,0-0.4-0.1c-0.5-0.5-1-0.9-1.6,0c-0.1,0.1-0.5,0-0.8-0.1
		c0.1,1.7,0,1.9-1.9,2.1c-0.2-0.1-0.5-0.1-0.7-0.2c-0.2,0-0.4,0-0.5,0.1c0.2,0.7,0.5,1.2,1,1.7c0.1,0.1,0.5,0.2,0.5,0.2
		c0.7-1.5,1,0.2,1.5,0.2c0.1,0,0.3,0,0.4,0c0.9,0.4,1.6,0.5,1.8-0.8c0-0.4-0.1-0.8-0.2-1.3c-0.2-1,0.1-1.3,1.1-1.1
		c0.4,0,0.7,0.2,1,0.4C49.3,137,49.5,136.6,49.7,136.2z"/>
	<path class="st7" d="M20.3,104.8c0.6-0.9,0.4-2.8-0.2-3.4c-0.3-0.3-2-0.3-2.4,0c-0.7,0.6-0.6,1.4-0.5,2.1c0.1,0.6,0.5,1.3,1.3,1.4
		C19.2,104.7,19.7,105,20.3,104.8z"/>
	<path class="st8" d="M57.9,116.4c0,0.6,0.4,1.1,0.7,1.5c0.6,1.1,1.6,0.6,2.5,0.2c0.3-0.3-0.7-0.6,0-0.9c1.2-0.5,0.5-1.1,0-1.5
		c-0.5-0.4-1-0.9-1.3-1.5c-0.3-0.7,0.3-0.5,0.6-0.5c0.5,0,1.1,0.4,1.6,0c-0.6-0.9-1.8-0.5-2.5-1.2c0,0-0.9,0.4-1.2,0.6
		C57.2,114,57.2,115.1,57.9,116.4c0.4-0.3,0.2-0.8,0.6-1.4C58.8,115.9,58.1,116,57.9,116.4z"/>
	<path class="st9" d="M44.5,141.1c-1.2,1-1.6,2.3-1.2,3.8c1.5,2.3,2.1,2.6,4.1,1.5c0.7-0.2,1-0.5,0.3-1.2c-0.5-0.4-1.2-0.4-1.7-0.7
		c0.1-0.3,0.2-0.7,0.2-1c0-0.1,0-0.3-0.1-0.4c-0.1-0.2-0.2-0.3-0.5-0.3c-0.4,0-0.9,0.5-0.9-0.4c0-0.3,0-0.7-0.1-1
		C44.7,141.3,44.6,141.2,44.5,141.1z"/>
	<path class="st10" d="M32.2,94c-0.5-0.3-0.6-0.9-0.9-1.4c-0.1-0.1-0.2-0.1-0.3,0c-0.1,0-0.2,0-0.3,0c-0.1-0.1-0.2-0.1-0.3-0.1
		c-0.1,0.1-0.2,0.3-0.2,0.5c-0.1,0.4-0.5,0.4-0.8,0.5c-0.1,0-0.2,0.1-0.4,0.1c-0.7,0.4-1.5,0.6-1.4,1.6c0.1,0.3,0.1,0.6,0,0.9
		c0,0.2,0.1,0.4,0.2,0.5c0.4,0.2,0.8,0.4,1.2,0.6c0.5,0.4,0.8-0.1,1.1-0.3C31.1,96.1,32.3,95.4,32.2,94z"/>
	<path class="st11" d="M58.4,99.5c-0.5-0.3-0.9-0.3-1.2,0.4c-0.2,0.5-0.2,1.2-0.8,1.4c-0.4,0.6-0.2,1,0.4,1.3
		c0.4,0.2,0.9,0.4,1.4,0.5c0.3,0,0.6-0.1,0.8-0.3c1,0.6,1.4-0.2,1.8-0.8c0.6-0.8,0.1-1.4-0.6-1.9c-0.6,0-1.1-0.3-1.6-0.2
		C58.3,99.9,58.6,99.5,58.4,99.5z"/>
	<path class="st12" d="M125.9,58.8c0.9-0.1,1.6-0.5,2-1.5c0.3-1,0-1.5-0.6-2c-0.6-0.5-1.3-0.5-2-0.3c-0.5,0.2-1.1,1.6-1,2.2
		c0.1,0.2,0.1,0.5,0.2,0.7c-0.1,0.1-0.1,0.1-0.1,0.2c0,0.1,0,0.1,0.1,0.1C125,58.4,125.6,58.2,125.9,58.8z"/>
	<path class="st13" d="M38.1,151.1c0.1,0.2,0.4,0.5,0.5,0.3c0.4-0.6,1.2-0.4,1.6-0.9c-0.1-0.4-0.3-0.7-0.4-1
		c-0.5-0.5-0.1-1.9-1.5-1.5c-0.3,0.2-0.7,0.2-1,0.1c-0.5,0-0.9,0.5-1.5,0.2c-0.3-0.1-0.6-0.3-0.9-0.1c-0.1,0.2-0.1,0.4,0.1,0.6
		c0.3,0.7,0.6,1.4,1.4,1.7c-0.1,0.5,0.2,0.5,0.6,0.5C37.3,150.9,37.7,150.8,38.1,151.1z"/>
	<path class="st14" d="M39.9,144.9c-0.3-0.8-0.6-1.2-1.6-1c-0.8,0.2-1.7,0-2.7,0c0,0.4,0.6,0.8-0.1,1.3c-0.5,0.4-0.7,1.2-0.6,2
		c0.3,0.5,0.6,0.5,0.7-0.1c0.1-0.4-0.2-0.8,0.1-1.1c0-0.2,0.1,0,0.1,0c-0.4,1.4,0.7,1.1,1.4,1.2c0.3-0.1,0.5-0.2,0.6-0.5
		c0-0.3-0.3-0.5-0.3-0.8c0.4,0.1,0.2,0.5,0.4,0.6c0.4,0.4,0.9,0.3,1.4,0.4c0.4-0.3,0.3-0.7,0.1-1C39.1,145.4,39.5,145.1,39.9,144.9z
		"/>
	<path class="st15" d="M113.7,116.7c0.3,0.1,0.5,1,0.9,0.1c0.2-0.4,0.7-0.4,1-0.7c-0.7-0.4-0.6-1.3-1.1-1.9
		c-0.2-0.3,0.4-0.1,0.5-0.2c0.2-0.3,0.2-0.6-0.2-0.6c-0.4,0-0.5-0.3-0.7-0.6c-0.1,0-0.2,0-0.3,0c-0.5,0.4-1.2,0.3-1.8,0.5
		c-0.5,0.2-1,0.3-1.1,0.9c0.2,0.3,0.7,0.4,0.5,1c-0.4,1,0,1.3,1.2,1c0.2-0.2,0.2-0.5,0.2-0.7c-0.1-0.3-0.5-0.1-0.4-0.2
		c0.1-0.3,0.4-0.1,0.6,0C114,115.5,113.2,116.4,113.7,116.7z"/>
	<path class="st16" d="M117.5,105.3c0.4-0.6,0.6-1-0.4-1.2c-0.2,0-0.4-0.1-0.5-0.2c-2.4-1.1-4.4,0.3-4.3,2.8
		c-0.1,0.1-0.1,0.1-0.1,0.2c0,0.1,0,0.1,0.1,0.1c0.8-0.2,1.3-1.2,2.2-1.1c0.2,0.1,0.5,0.2,0.8,0.2c0.4,0,0.7-0.1,1-0.4
		c0.3-0.3,0.2-0.7,0.4-1.1C116.6,105.4,117.1,105.3,117.5,105.3z"/>
	<path class="st17" d="M12.8,39.9c0.1,1.9,0.4,2.2,2,2.4c1,0.1,1.1-0.7,1.5-1.1c0.9-1,0.3-3-0.9-3.5c-0.5-0.2-0.4,0.2-0.5,0.5
		c0.1,0.6,0.7,0.8,0.8,1.3c-0.4,0.2-0.9,0.3-1.4,0.1C13.7,39.3,13.2,39.6,12.8,39.9z"/>
	<path class="st18" d="M29.6,82.9c-0.2,1.6,0.9,2.4,2,2.9c0.9,0.5,2,0.3,2.7-0.6c0.2-0.4-0.3-0.9,0.1-1.2c0.1-0.3,0-0.5-0.2-0.7
		c-0.2-0.2-0.5-0.5-0.9-0.4c-0.4,0.2-0.5,0.6-0.8,0.8c-0.7,0.4-1.4,0.6-1.6-0.5C30.6,82.1,30.1,82.5,29.6,82.9z"/>
	<path class="st19" d="M71.5,130.6c-0.4-1.1-0.3-2.3-1.6-2.6c-0.6-0.1-1.1-0.4-1.6,0.1c-0.4,0.5-0.5,1.8,0.1,2.3
		c0.5,0.4,1.2,0.9,1.8,0.4C70.6,130.4,71,130.3,71.5,130.6z"/>
	<path class="st20" d="M29.6,82.9c0.6-0.2,0.4,0,0.8,0.4c0.4,0.4,0.4,1.5,0.9,1.2c0.6-0.3,1.6,0.1,1.8-0.9c0-0.2,0.2-0.4,0.3-0.6
		c0.8-0.2,1.1-0.7,0.8-1.4c-0.3-0.7-1.1-0.7-1.8-0.7c-0.4,0-0.8,0.4-1.1,0.6c-0.4,0.2-0.8,0.2-1.1,0.6C30,82.4,29.6,82.5,29.6,82.9z
		"/>
	<path class="st21" d="M19.2,128.1c0.2,0,0.4-0.1,0.6-0.3c0.3-0.7,0.2-1.4,0-2.1c-0.4-0.8-1-1.4-1.9-1.5c-0.1-0.1-0.3-0.1-0.4-0.1
		c-0.3-0.1-0.7,0-1,0.2c-0.1,0.3,0,0.5,0.1,0.7c0.2,0.4-0.1,0.7-0.2,1.1c-0.2,1.1,0.4,1.9,1.6,1.8C18.5,127.8,18.8,128.3,19.2,128.1
		z"/>
	<path class="st22" d="M24.7,89.9c-0.1,0-0.2,0-0.3,0c-0.6-0.2-0.3,0.5-0.6,0.6c-0.6,0.9-0.9,1.9-0.2,2.9c0.4,0.5,0.7,1,1.1,1.5
		c0.1,0.1,0.2,0.1,0.4,0.1c0.4-0.3,0.5-0.6,0.2-1.1c-0.1-0.1-0.3-0.2-0.2-0.4c0-0.1,0.2,0.1,0.3,0.1c0.1,0,0.2,0.1,0.4,0.1
		c0.4,0,0.7-0.1,0.8-0.5c-0.2-0.7-0.3-1.6-1.1-1.9c-0.6-0.3,0.1-0.2,0.1-0.3C25.8,90.2,25.7,90.1,24.7,89.9z"/>
	<path class="st23" d="M99.1,5.9c-0.3,0.8-0.2,1.5,0.7,1.9c0.5,0.2,2-0.3,2.3-0.8c0.5-0.6,0-2.2-0.8-2.2c-0.7-0.1-1.5-0.3-1.9,0.5
		C99.7,5.7,99.4,5.8,99.1,5.9z"/>
	<path class="st24" d="M39.9,144.9c-0.3,0-0.7-0.4-1,0c-0.3,0.4,0.1,0.7,0.2,1c0.1,0.3,0.8,0.5,0.2,1c-0.1,0-0.1,0-0.2,0
		c-0.6,0-1,0.2-1.1,0.8c0,0.1,0.1,0.2,0.2,0.3c0.4,0.1,1.2-0.4,0.9,0.7c-0.1,0.4,0.4,0.5,0.6,0.8c0.9-0.2,0.5-1,0.8-1.5
		c0.2-0.3,0.1-1.1,0.9-0.5c0.2,0.1,0.4-0.2,0.6-0.3c0-0.2,0-0.4,0.1-0.6c-0.1-0.3-0.3-0.6-0.5-0.9C41,145.3,40.6,144.8,39.9,144.9z"
		/>
	<path class="st20" d="M48,135.9c-0.6,0-1.2,0-2-0.4c0.4,1.1,0.2,2.1,0.6,3c0.1,0.9,0.4,1.6,1.5,1.7c0.3,0.1,0.6,0.5,0.7,0.1
		c0.3-0.6,1.1-1,1-1.8c-0.3-0.5-0.9-0.6-1.3-0.8C47.2,137.3,47.3,136.7,48,135.9z"/>
	<path class="st25" d="M77.6,137c1.3-0.7,1.7-1.8,1.5-3.2c0-0.3,0-0.7-0.4-0.8c-0.3-0.1-0.8-0.1-0.5-0.6c0.3-0.5,0.5,0,0.8,0.1
		c0.1,0,0.2,0,0.3,0c0.1-0.5,0.3-1.1-0.2-1.4c-0.5-0.3-1-0.1-1.5,0.3c-0.7,0.5-1.6,0.7-2.4,0.9c-0.6,0.2-0.9,0.5-1.1,1
		c0.5,0.3,0.9-0.1,1.3-0.3c0.5-0.2,1-0.3,1.5-0.1c1.3,0.9,1.5,1.4,0.9,2.5C77.4,135.9,77.2,136.4,77.6,137z"/>
	<path class="st26" d="M99.2,118.2c-0.2,0-0.4,0-0.6,0c-0.2,0.3,0.2,0.7-0.2,1c0.2-0.8-0.3-1.2-0.9-1.1c-0.8,0.1-1.7,0.4-1.5,1.6
		c0.3,0.2,0.5,0.4,0.6,0.7c0.3,0.5,0.9,0.6,1.5,0.7c0.7,0.1,1.1-0.5,1.8-0.5c0.2,0,0.1-0.6,0.1-0.9
		C100.3,118.8,99.6,118.6,99.2,118.2z"/>
	<path class="st27" d="M60.2,113.5c-0.6-0.3-0.9,0.3-1.4,0.4c1,1,1.6,2.1,2.9,2.8c-0.6,0.5-1.7,0-1.6,1c0,0.7,0.8,0,1,0.4
		c0.6,0,1.1,0,1.4-0.6c0.4-0.5,0-0.9-0.2-1.3c-0.2-0.2-0.5-0.5-0.4-0.7C62.1,114.2,61.1,113.9,60.2,113.5z"/>
	<path class="st28" d="M120,71.6c-1.1,0-1.6,0.5-1.6,1.5c0,0.4,1,1.6,1.4,1.6c0.2,0,1.5-1,1.6-1.2C121.4,72.5,120.8,71.6,120,71.6z"
		/>
	<path class="st29" d="M43.6,85.6c-0.6-0.8-1.4-0.8-2.2-0.3c-0.7,0.5-1.1,1.2-0.9,2.1c0.3,1,1.1,1.1,1.9,1.2c0.5,0.1,1.2-0.1,1.1-1
		c-0.2-0.4-1.1-0.1-0.9-0.9C42.9,86.2,43.5,86.1,43.6,85.6z"/>
	<path class="st20" d="M103.2,64.9c0,0.6,0.4,1,0.6,1.5c0.2,0.2,0.3,0.2,0.5,0.1c0.4-0.4,1,0.1,1.4-0.3c0.4-0.4,0.7-0.8,0.3-1.4
		c-1.2-0.3-0.5-1-0.3-1.6c0,0,0-0.1-0.1-0.1c-0.1-0.1-0.1-0.1-0.2,0c-1.2-0.3-2.3-0.3-3.2,0.6C102.2,64.5,102.9,64.5,103.2,64.9z"/>
	<path class="st30" d="M31.4,81.8c0.3-0.1,0.6-0.2,0.7-0.4c0.5-0.9,1.5-0.1,1.6,0c0.7,0.5,0.2,1.1-0.3,1.6c0.2,0.2,0.4,0.4,0.6,0.6
		c0.4-0.3,1-0.4,1.4-0.9c0-0.1,0-0.2,0-0.3c-0.1-0.2-0.4-0.3-0.4-0.6c0-0.1,0.3,0.2,0.4,0c0.1-1.1-1-1.2-1.5-1.7
		c-0.7-0.8-1.4-0.2-2,0.1c-0.5,0.3-1.2,0.4-1.5,1C30.7,81.6,31,81.7,31.4,81.8z"/>
	<path class="st14" d="M45.9,143.2c0,0.1,0,0.2,0,0.3c0.5,0.5,0.8,1.2,1.7,0.9c0.4-0.1,1.1,1.1,0.8,1.5c-0.4,0.4-0.5,0.7-0.2,1.1
		c0.7,0,1.2-0.5,2.1-0.3c-0.6-1-0.7-1.9-0.1-2.7c0.3-0.4,0.1-0.6-0.3-0.7c-0.9,0.4-1.2-0.6-1.7-0.9c-0.4-0.2-0.5-0.8-1.1-0.8
		c-0.2,0.1-0.4,0.4-0.5,0.6C46.5,142.6,46.2,142.9,45.9,143.2z"/>
	<path class="st31" d="M38.7,35.9c0.5-1.3,0.4-1.6-0.5-2c-0.8-0.4-1.4-0.2-1.8,0.4c-0.5,0.7-0.6,1.5,0.2,2c0.3,0.2,0.5,1.3,1.2,0.4
		c0.3-0.5,0.4-1.1,0.8-1.6C38.4,35.5,38.5,35.7,38.7,35.9z"/>
	<path class="st30" d="M91.3,93.1c0.3,0.1,0.4,0.7,0.7,0.4c0.3-0.3,1.1-0.6,0.7-1.3c-0.5-0.5-0.2-1.3-0.8-1.8
		c-0.2,0-0.5,0.1-0.6,0.3c-0.8,1.1-1.6,0.9-2.4,0.1c-0.4,1.4-0.1,1.7,1.2,2.6C90.5,93.1,90.8,92.7,91.3,93.1z"/>
	<path class="st32" d="M89.3,5.1C89.2,5.6,89.5,5.9,90,6c0.2,0.1,0.5,0.2,0.7,0c0.5-0.4,1.7,0.3,1.6-0.6c-0.1-0.7-0.9-1.5-1.6-2
		C90.3,3,89.2,4.1,89.3,5.1z"/>
	<path class="st33" d="M56.4,51.8c-1.2,1.2-1.2,1.2-0.1,2.4c0.4,0,0.8,0,1.2,0.2c0.1,0,0.2,0,0.3,0c0.5,0,0.7,0.9,1.1,0.6
		c0.7-0.4-0.1-0.8-0.2-1.2c0-0.1,0-0.2,0-0.3c0.9-0.8,0.1-1.3-0.3-1.8c-0.4,0.1-0.9,0.1-1.2,0.5c0,0.1-0.1,0.2-0.1,0.3
		c0,0.1-0.1,0.2-0.2,0.3c0-0.2,0.2-0.2,0.2-0.4C57.2,52,56.6,52.1,56.4,51.8z"/>
	<path class="st34" d="M95.9,119.6c0.8-1.5,1.1-1.6,2.2-1c0,0.1,0,0.2-0.1,0.3c-0.2,0.2-0.6,0.3-0.6,0.8c0,0.1,0.2,0.2,0.3,0.2
		c0.4,0,0.7-0.3,0.9-0.6c0.3-0.4,0-0.7-0.2-1.1c-0.3-0.4-0.8-0.4-1.2-0.6c-0.4-0.2-0.6,0.7-1.1,0.2c-0.5-0.5-0.9-1-1-1.7
		C94.3,117.3,94.5,118.5,95.9,119.6z"/>
	<path class="st35" d="M47.1,146.1c-0.7,0.9-1.7,0.4-2.6,0.4c-0.1,0-0.4-0.3-0.4-0.4c0.6-1.1-0.8-0.7-0.9-1.3
		c-0.4,0.1-0.8-0.1-1.1,0.3c-0.2,0.4-0.3,0.8,0,1.2c0.6,0.4,1.5,0.3,2,0.6c0.9,0.4,1.8,0.4,2.6,0.8c0.2,0.1,0.4,0.1,0.6-0.1
		C47.4,147.1,47.5,146.5,47.1,146.1z"/>
	<path class="st35" d="M78.2,135.6c0.7-1.1,0.2-2.2-1.1-2.9c-0.2,0.1-0.2,0.3-0.2,0.5c-0.3,0.1,0.7,0.3,0,0.5
		c-0.5,0.1-0.8,0.5-1.1,0.8c-0.7,0.2-0.2,1-0.7,1.3c0.5,0.6,1.6,0,2,0.9c0.3-0.1,0.4-0.4,0.4-0.6C77.3,135.4,77.8,135.5,78.2,135.6z
		"/>
	<path class="st36" d="M47.1,146.1c0.1,0.5-0.2,1.1,0.4,1.5c0.3-0.2,0.6-0.4,0.8-0.6c0.2-0.2-0.1-0.9,0.7-0.8c0.6,0,0.6-0.9,0.1-1
		c-0.9-0.3-0.7-0.8-0.4-1.8c-1.1,1.3-1.9,0.3-2.7,0.1c-0.1,0.4-0.2,0.8-0.3,1.2c0.6,0.2,1.4,0,1.7,0.9c0.2,0,0.6,0,0.4,0.4
		C47.7,146.2,47.4,146,47.1,146.1z"/>
	<path class="st37" d="M41.8,147.2c-0.8,0.4-1-0.1-1.1-0.9c-0.6,1.1-0.9,2.1-1.2,3.2c0,0.5,0,0.9,0.6,0.9
		C41.2,149.6,42,148.7,41.8,147.2z"/>
	<path class="st38" d="M101.5,42.6c0.5,0.7,1.4,1.1,1.9,0.8c0.4-0.3,0.8-2.1,0.5-2.4c-0.7-0.7-1.4-0.4-2,0.2
		C101.3,41.5,101.5,42.1,101.5,42.6z"/>
	<path class="st39" d="M66.9,33.8c0.7,0.8,1.5,0.1,2.2,0c0.3,0,0.8-0.6,0.5-1.2c-0.3-0.2-0.6,0.1-0.8,0.1c-0.4,0-0.8,0.4-1-0.1
		c-0.2-0.6,0.4-0.6,0.8-0.9c0.1-1,0-1.1-1.6-1.2c-1,1-1.1,1.8-0.6,3.2C66.5,33.5,66.7,33.6,66.9,33.8z"/>
	<path class="st40" d="M60.2,113.5c0,0.1,0,0.3,0.1,0.4c0.2,0.6,1-0.1,1.2,0.5c0.1,0.4-0.3,1,0,1.4c0.4,0.6,1.1,1,1.1,1.8
		c1-1.2,0.8-2.5-0.6-3.8C61.4,113.7,60.8,113.4,60.2,113.5z"/>
	<path class="st41" d="M18.6,121.6c-1.5-0.6-2.6-0.4-3.5,0.6c-0.3,0.7-0.7,1.3-0.5,2.1c0.1,0.3,0.6,0.4,0.5,0.9
		c0.2,0.1,0.4,0.1,0.6,0c0.4-0.3,0.6-0.7,0.7-1.2c-0.6-0.8,0.1-0.7,0.5-0.8c0.3-0.1,0.7-0.2,0.7-0.4C17.4,122,18.2,122,18.6,121.6z"
		/>
	<path class="st42" d="M46.8,36.1c1-0.6,0.5-1.4,0.2-2c-0.2-0.5-0.8-0.6-1.4-0.3c-0.6,0.2-1.2,0.6-1.1,1.3c0.1,0.7,0.4,1.4,1.4,1.3
		C46.1,35.7,46.4,35.7,46.8,36.1z"/>
	<path class="st43" d="M75,135.9c0.2-0.1,0.8,0.3,0.4-0.4c-0.2-0.4,0.4-0.4,0.4-0.7c0.2-0.6,0.4-1.3,1.2-1.4c0-0.2,0-0.4,0-0.6
		c-0.6-0.6-1.2-0.2-1.8,0c-0.4,0.2-0.6,0.6-1.1,0.6C74.1,134.3,74.2,135.2,75,135.9z"/>
	<path class="st44" d="M89,90.8c0.1,0.2,0.2,0.5,0.3,0.6c0.6,0.5,1.1,1.1,1.7,0c0.2-0.3,0.7-0.5,0.9-0.9c0.4-1-0.7-0.5-0.9-0.9
		C89.5,89.5,89.4,89.6,89,90.8z"/>
	<path class="st45" d="M15.7,125.1c-0.2,0-0.4,0-0.6,0c-0.3,0.2-0.6,0.4-0.3,0.9c0.8,0.1,1.8,0.2,1.1,1.5c-0.1,0.1,0,0.3,0.2,0.3
		c1.1,0,2,1,3.1,0.3c-0.4-0.2-0.5-1.2-1.3-0.4c-0.3,0.3-0.8-0.1-1-0.5c-0.3-0.6-0.4-1.1,0.1-1.6c0.3-0.3,0.3-0.3-0.3-0.7
		C16.4,124.6,16,124.8,15.7,125.1z"/>
	<path class="st46" d="M64.8,73.1c-0.6,0.5-1,1-1.9,1c-0.8,0,0,0.8-0.2,1.3c0.6-0.1,1.1-0.2,1.5-0.6c0.1,0.9,0.5,1.2,1.3,0.8
		c0.4-0.2,0.8-0.1,1.1-0.1c0.1-0.6-0.5-0.7-0.7-1C65.4,74,65.4,73.3,64.8,73.1z"/>
	<path class="st12" d="M44.5,40.8c0.1,1.8,1.2,2.8,2.6,2.3c0.1-0.8,0.3-1.6,0.1-2.4c-0.2-0.1-0.3-0.2-0.5-0.2
		c-0.5,0.1-0.9,0.3-1.4,0C44.9,40.3,44.7,40.5,44.5,40.8z"/>
	<path class="st47" d="M38.1,148.1c0-0.1,0-0.2,0-0.3c-0.1-0.2-0.3-0.3-0.4-0.5c-0.1-0.1-0.3-0.3-0.5-0.4c-0.5,0-1-0.1-1.3-0.5
		c0-0.4,0.2-0.3,0.5-0.3c0.2,0,0.2-0.1,0.2-0.3c0-0.2-0.1-0.4-0.3-0.4c-0.2,0-0.6-0.1-0.7,0.2c-0.2,0.4-0.5,0.8-0.3,1.4
		c0.2,0.6-0.3,0.2-0.5,0.2c-0.1,0-0.2,0-0.2,0c-0.2,0.4,0,0.6,0.2,0.9c0.3,0.1,0.5,0.3,0.9,0.3c0.5-0.1,0.9-0.3,1.4-0.3
		C37.5,148.1,37.8,149.3,38.1,148.1z"/>
	<path class="st33" d="M46.5,40.8c0.2,0,0.4,0,0.6,0c0.7-0.5,1.2,0.1,1.7,0.3c0-0.3,0.2-0.5,0.3-0.8c0.3-0.5,0.7-1.1-0.4-0.8
		c-0.2,0.1-0.4,0.1-0.7-0.1c-0.9-0.7-1.7-0.5-2.4,0.2c-0.2,0.3-0.3,0.5-0.1,0.9C45.8,40.8,46.1,40.9,46.5,40.8z"/>
	<path class="st48" d="M40.1,16.6c-0.1-0.9-0.7-0.9-1.3-0.8c-0.8,0.1-0.9,0.8-1,1.4c-0.1,0.8,0.5,0.9,1.1,0.9c0.1,0,0.1,0,0.2,0
		c0.4-0.1,0.9,0,1.2-0.5C40.2,17.3,40.3,16.9,40.1,16.6z"/>
	<path class="st49" d="M42.7,137.7c0.9,0.1,1.9,0.2,2.4-0.9c0.2-0.3,0.1-0.6-0.2-0.9c-0.1-0.1-0.1-0.4-0.1-0.5
		c-0.1-0.1-0.2-0.2-0.3-0.3c-0.1-0.2-0.2-0.4-0.4-0.3C43.5,134.9,42.6,136.9,42.7,137.7z"/>
	<path class="st50" d="M119.5,58.5c-0.1-0.1-0.3-0.2-0.4-0.4c-1-1.1-1.3-1.1-2.2,0.1c-0.1,0.1-0.2,0.2-0.3,0.3
		c-0.3,0.4-0.3,0.8,0.2,1.1c0.5,0.3,1.1,0.3,1.7,0C118.9,59.4,119.2,58.9,119.5,58.5z"/>
	<path class="st11" d="M19.5,125.7c0.4,0.6-0.1,1.4,0.3,2c1.1,0.2,0.8-1.4,1.7-1.5c0,0-0.7-1.1-0.9-1.3c-0.4-0.3-0.3-0.8-0.7-1
		C19.1,124.4,19.3,125.1,19.5,125.7z"/>
	<path class="st51" d="M82.7,79.1c-0.6,0.2-1.3,0.1-1.3,1c0,0.6,0.5,1,1,1.2c0.4,0.1,1.7-1.1,1.5-1.5C83.8,79.3,83.3,79.2,82.7,79.1
		z"/>
	<path class="st27" d="M18.6,121.6c-0.3,0-0.7,0-1,0c-0.3,0-0.6,0-0.7,0.3c-0.1,0.3,0.1,0.5,0.4,0.5c0,0-0.3,0.5-0.4,0.6
		c0.1,0.1,0.1,0.2,0.2,0.3c0.3,0.2,0.4,0.6,0.6,0.9l0,0c0.8-0.2,1.8-0.2,1.7-1.4C19.4,122.2,18.9,122,18.6,121.6z"/>
	<path class="st52" d="M134.6,99.9c-0.4,0.7-1.1,1-1.3,1.9c-0.1,0.5-0.1,0.8,0.4,1c0.9,0,1.6-0.6,2.5-0.7c0.2-0.5,0.6-1.2-0.5-1.2
		C135.1,100.9,135.4,99.7,134.6,99.9z"/>
	<path class="st53" d="M68.3,31.8c-0.4-0.2-0.8-0.4-1.1,0.2c-0.2,0.4-0.2,0.9,0,1.4c0.1,0.2,0.4,0.2,0.5,0.1
		c0.5-0.5,1.3-0.2,1.7-0.8c0.7-0.5,0.7-0.7,0-1.5C69.1,31.3,68.8,31.7,68.3,31.8z"/>
	<path class="st42" d="M102.3,73.6c0,0.6,0.1,1.2,0.9,1.2c0.7,0,1.1-0.5,1.2-1.2c0.1-0.8-0.5-1-1.1-1.1
		C102.6,72.4,102.3,72.9,102.3,73.6z"/>
	<path class="st54" d="M48,135.9c-0.7,0.1-0.5,1.1-1.2,1.2c-0.2,0,0.1,0.4,0.2,0.4c1.1-0.1,1.7,1.1,2.8,0.9c0.3-0.2,0.4-0.4,0-0.6
		c-0.1-0.6-0.6-1-0.9-1.4C48.6,136.1,48.3,136,48,135.9z"/>
	<path class="st55" d="M48.8,41.1c-0.4-0.2-0.4-0.7-0.5-1.2c-0.5,0.2-1,0.3-1.2,0.9c-0.3,0.7,0.1,1.5-0.4,2.2c0.1,0,0.3,0.1,0.4,0.1
		c0.6,0,0.9-0.4,1.1-0.9C48.4,41.8,49.1,41.7,48.8,41.1L48.8,41.1z"/>
	<path class="st51" d="M32.2,94c-0.6,1.1-1.3,2-2.3,2.7c-0.1,0.4-0.1,0.9,0.3,1.2c0.8-0.6,2-0.8,2.3-2.1C32.5,95.2,33,94.5,32.2,94
		L32.2,94z"/>
	<path class="st0" d="M111.1,114.4c0.5-0.4,1.1-0.7,1.8-0.7c0.5,0,0.9-0.2,1.1-0.7c-1.4-0.3-1.9-0.3-3.6,0.3
		c-0.4,0.1-0.8,0.2-1.1,0.6c0,0,0.1,0.1,0.1,0.1C110,114.1,110.6,114.1,111.1,114.4L111.1,114.4z"/>
	<path class="st31" d="M124.5,58.2c0-0.1,0-0.2,0-0.3c-1,0.2-1.5,0.7-1.4,1.8c0.1,0.9,0.6,1.2,1.4,1.2c0.2-0.3-0.1-0.5-0.3-0.6
		c-0.2-0.2-0.1-0.4-0.2-0.7c0.1,0.2,0,0.5,0.2,0.7c0,0,0.1,0.1,0.1,0.1c0.5,0.1,0.9-0.1,1.4-0.3c0-0.3,0-0.6,0-0.8
		C125.4,58.7,124.9,58.5,124.5,58.2z"/>
	<path class="st56" d="M88.4,137.1c-0.3,0.2-0.4,0.6-0.6,0.9c-0.1,0.8,0.3,1.3,0.9,1.8c0.7,0,1.5,0.1,2-0.6
		C90.3,138,89.5,137.3,88.4,137.1z"/>
	<path class="st57" d="M103.2,64.9c0.1-0.6-0.7-0.6-0.9-1.1c-0.6,0.3-1.1,0.8-1.5,1.4c0.2,0.1,0.5,0.2,0.4,0.5
		c-0.3,0.8,0.6,0.6,0.8,1.1c0.5-0.2,0.9-0.6,0.7-1.2C102.6,65.1,102.8,64.9,103.2,64.9z"/>
	<path class="st58" d="M68.3,74.2c0.5-0.5,0.3-1.2,0.6-1.8c0.1-0.2,0.1-0.4-0.2-0.5c-0.6-0.1-1.1-0.7-1.9-0.6
		c-0.2,0.6-0.8,1.2,0.2,1.5c0.1,0,0.1-0.1,0.2-0.1c0.1,0,0.1,0,0,0.1c-0.8,0.2-1,0.7-0.6,1.4C67.3,74.6,67.8,74.2,68.3,74.2z"/>
	<path class="st59" d="M47.1,141.7c0.6,0.9,1.7,1.3,2.2,2.3c0.1,0.2,0.3,0.3,0.5,0.1c0.3-0.2,0-0.4,0-0.6c0.2-0.5,0-0.8-0.3-1.2
		c-0.1-0.1-0.2-0.2-0.3-0.3c-0.6-0.3-1.2-0.7-1.8-1.1c-0.1,0-0.2,0-0.3,0c-0.4-0.2-0.8-0.4-1.1,0c-0.2,0.3-0.1,0.6,0.1,0.9
		C46.4,142.3,46.7,141.8,47.1,141.7z"/>
	<path class="st60" d="M136.1,102.1c-0.5-0.2-1-0.9-1.4,0.1c-0.2,0.3-0.7,0.1-0.9,0.5c0.7,0.3,1.4,0.7,2.3,0.6
		c0.6,0.3,1.1,0.3,1.5-0.3c0.3-0.1,0.3-0.4,0.2-0.6C137.3,102,136.7,102.2,136.1,102.1z"/>
	<path class="st52" d="M88,131.4c0.3,0.4,0.4,1.1,1.2,1c0.5-0.1,1.1-0.1,1.1-0.9c0-0.5-0.8-1.4-1.3-1.4
		C88.6,130.1,87.9,131,88,131.4z"/>
	<path class="st44" d="M121.6,99.5c0.2,0.5,0.6,1.1,1.1,1.1c0.5,0,1.1-0.3,1.2-1c0-0.3-1-1.2-1.4-1.2
		C121.8,98.4,121.7,98.9,121.6,99.5z"/>
	<path class="st61" d="M117.5,105.3c-0.1-0.5-1,0-0.6-1.1c-0.8,0.8-0.6,1.9-1.7,1.7c-0.5,0.5-0.3,1,0.1,1.5c0.3,0.3,0.6,0.5,1.1,0.2
		c0.2-0.3,0.8-0.4,0.6-0.8C116.5,106.1,117.2,105.8,117.5,105.3z"/>
	<path class="st62" d="M106.1,64.9c-0.2,0.4-0.1,0.9-0.7,1.1c-0.1,0-0.2,0.3-0.4,0.1c-0.4-0.3-0.4-0.3-0.6,0.3c-0.4,0.4-1,0.8,0,1.2
		c0.2-0.5,0.4-0.9,1.1-0.9c0.9,0.1,1.5-0.3,1.4-1.4c0-0.2,0.2-0.5,0.4-0.7c-0.2-0.4-0.5-0.7-0.9-0.8C105.9,64,106.1,64.5,106.1,64.9
		z"/>
	<path class="st51" d="M32.3,110c-0.5,1.3-0.4,1.4,0.9,2c0.5-0.4,0.4-1.5,1.5-1.2c0.2-0.2,0.6-0.3,0.5-0.6c-0.2-0.5-0.8-0.6-1.3-0.6
		C33.2,109.4,32.7,109.6,32.3,110z"/>
	<path class="st63" d="M141.6,66.6c0.6,0.8,1.3,0.5,1.8,0c0.4-0.4,0.4-1,0-1.4c-0.5-0.5-1.3-0.8-2-0.4c-0.4,0.2-0.5,0.7-0.1,1.1
		c0.2,0,0.4-0.3,0.5-0.2C142,66,141.7,66.3,141.6,66.6z"/>
	<path class="st15" d="M107.6,116.4c0.6,0,1.2,0,1.5-0.7c0.1-0.3,0.4-0.5,0.8-0.5c0.3-0.7-0.2-1-0.5-1.4l-0.1,0
		c-0.4,0-0.6,0.2-0.8,0.5c-0.2,0.4-0.4,0.7-0.9,0.7c-0.5-0.2-1.1-0.3-0.9,0.6c0.2,0,0.4,0,0.6,0c0.1,0.2,0.7,0.1,0.3,0.6
		C107.6,116.2,107.6,116.3,107.6,116.4z"/>
	<path class="st64" d="M93.9,99.3c0.7-0.6,0.3-1.3,0.1-2.1c-0.7,0.5-1.8,0.2-2.1,1.2c-0.1,0.5,0.1,1,0.8,1.2
		C93,99.1,93.5,99.2,93.9,99.3z"/>
	<path class="st65" d="M54.1,102.2c-0.1-0.3-0.5-0.6-0.4-1c0.2-0.5-0.1-0.7-0.6-0.7c-0.5,0-1-0.2-1.1,0.6c-0.1,0.6,0,0.9,0.6,0.9
		c0.8,0,1,0.5,1,1.2C54.5,103.3,54.2,102.7,54.1,102.2z"/>
	<path class="st66" d="M41.6,137.3c0.2,0,0.4,0.1,0.6,0.1c0.7-0.4,0.5-1.3,1-1.8c0.2-0.4,0.1-0.8-0.2-1.2c-0.5-0.4-0.9,0.3-1.4,0.3
		C41,135.6,41.1,136.5,41.6,137.3z"/>
	<path class="st7" d="M60.8,88.5c0.1-0.1,0.3-0.3,0.3-0.4c0.6-1.5,0.6-1.6-0.9-2.2c-0.4,0.2-1,0.2-1.1,0.8c-0.1,0.3,0,0.5,0.1,0.8
		c0.3,0.3,0.7,0.1,1,0.4C60.8,87.6,60.5,88.4,60.8,88.5z"/>
	<path class="st67" d="M88.1,103.9c0,0.4,1.3,1.7,1.7,1.7c0.3,0,0.4-0.3,0.3-0.4c-0.6-0.4-0.1-1.1-0.4-1.5c-0.2-0.3-0.4-0.7-0.9-0.5
		C88.4,103.3,88,103.4,88.1,103.9z"/>
	<path class="st68" d="M136.1,102.1c0.5,0.7,1.2,0.1,1.7,0.3c-0.1-0.2,0.1-0.7-0.3-0.7c-1.2,0.2,0.2-1.3-0.8-1.2
		c-0.5,0.1-1.2,0.3-1.4-0.7c0-0.3-0.4-0.6-0.7-0.1c0.4,0.4,0.4,1.2,1.4,1.2C136.5,101.1,135.9,101.8,136.1,102.1z"/>
	<path class="st69" d="M82.6,43.7c1.4,0.5,1.5,0.5,2.1-0.6c0.4-0.8-0.4-0.9-0.7-1.4c-0.2-0.4-0.3,0.3-0.6,0.2
		C83.3,42.6,82.3,42.8,82.6,43.7z"/>
	<path class="st35" d="M83.8,118.4c0.1-0.8-0.2-1.4-1.1-1.4c-0.6,0-0.9-0.5-1.5-0.6c-0.1,0.9-0.4,1.7-0.1,2.6c1,0.4,0.7-0.9,1.3-1
		C83,117.7,83.2,118.7,83.8,118.4z"/>
	<path class="st20" d="M107.9,119.6c-0.6-0.9-0.4-1.9-0.6-2.9c-0.1,0.1-0.3,0.1-0.4,0.2c-0.3,0.3-1.3,0-1,0.6
		c0.2,0.5,0.1,1.3,0.9,1.5C107.2,119.1,107.5,119.4,107.9,119.6z"/>
	<path class="st29" d="M88.4,137.1c0.8,0.7,1.5,1.4,2.3,2c0.1-1.9-0.1-2.2-1.4-2.5C88.8,136.5,88.6,136.7,88.4,137.1z"/>
	<path class="st19" d="M129.9,84.8c-0.3-0.5-0.8-0.6-1.2-0.8c-0.5-0.3-0.8,0.1-1.1,0.4c-0.2,0.2-0.2,0.5-0.1,0.6
		c0.3,0.3,0.7,0.6,1.1,0.5C129.1,85.3,129.6,85.1,129.9,84.8z"/>
	<path class="st9" d="M34.6,110.9c0-0.7-0.5-0.4-0.8-0.4c-0.3,0-0.6,0.2-0.7,0.6c0,0.3,0,0.7,0,1c0,0.3,0.1,0.7,0.5,0.8
		c0.5,0.1,0.5-0.4,0.6-0.6C34.4,111.8,34.7,111.4,34.6,110.9z"/>
	<path class="st38" d="M60.2,87.9c0-0.8-0.4-0.9-0.9-0.3c-0.3-0.3-0.6-0.7-1-0.8c-0.1,0-0.1,0-0.2,0c-0.7,0.7,0,1.2,0.3,1.8
		c0.3,0.2,0.6,0.5,0.9,0.6c0.4-0.2,1,0.2,1.4-0.4C60.4,88.6,60.4,88.2,60.2,87.9z"/>
	<path class="st33" d="M67.2,72.8c-0.3-0.2-0.7-0.3-0.3-0.7c0.3-0.3,0.1-0.5,0-0.8c-0.4,0-0.9-0.1-0.9,0.6c-0.1,0.9-1.1,1.9,0.1,2.8
		c0.4,0.1,0.8,0.2,0.8-0.4c-0.5-1,0.3-1.1,0.9-1.4C67.6,72.6,67.4,72.6,67.2,72.8z"/>
	<path class="st70" d="M116.6,117c-0.4,0.5-1,0.1-1.5,0.4c-0.3,0.2-0.6,0.3-0.5,0.7c0.1,0.4,0.4,0.4,0.8,0.4c0.7,0,1.3-0.5,2.1-0.4
		c0-0.3-0.4-0.3-0.6-0.5C117.1,117.3,117.1,117,116.6,117z"/>
	<path class="st65" d="M57.3,104.8c0.4-0.2,0.3-0.5,0.3-0.9c-0.1-1.4-1.1-1.4-2.1-1.5l0,0c-0.3,0.3-0.1,0.6,0,0.9
		c0.2,0.4-0.2,0.8,0,1.2C56.1,104.8,56.7,104.7,57.3,104.8z"/>
	<path class="st25" d="M55.5,102.4c0.6,0.7,1.8,0.5,2.1,1.5c0.5,0.4,0.6-0.2,0.9-0.3c0.3-0.4,0-0.6-0.3-0.8c-0.4-0.1-0.5-0.6-1-0.5
		c-0.9,0.2-0.8-0.4-0.7-0.9C56,101.6,55.8,102,55.5,102.4z"/>
	<path class="st71" d="M32.3,94.1c0.3,0.5-0.1,1.2,0.3,1.7c0.4-0.5,1-0.2,1.5-0.3c0.1-0.1,0.1-0.1,0.1-0.2c0-0.1-0.1-0.1-0.1-0.1
		c-0.8-0.9-1-2-0.9-3.2C32.6,92.6,32.8,93.5,32.3,94.1z"/>
	<path class="st49" d="M98,114.6c0.2,0.3,0.5,0.5,0.8,0.5c0.3,0,0.5,0,0.5,0.3c0,1,0.8,1.2,1.6,1.3c0-0.3,0-0.6,0-0.9l0,0
		C100.3,114.6,99.1,114.7,98,114.6z"/>
	<path class="st34" d="M47.1,141.7c-0.1-0.8-0.7,0.6-0.9-0.2c-0.3-1.1,0.5-0.6,0.9-0.7c-0.1-0.1-0.2-0.2-0.3-0.3
		c-0.4-0.3-0.8-0.2-1.2,0c-0.3,0.5-0.9,0.1-1.2,0.5c0,0.1,0,0.2,0,0.3c0.5,0.1,0.4,0.6,0.6,1c0.3,0.2,0.6,0.2,0.9,0.3
		c0.4,0.1,0.6-0.1,0.8-0.4C47.1,142.2,47.1,142,47.1,141.7z"/>
	<path class="st63" d="M96,98.7c0.5,0.1,0.9-0.1,1.5,0.2c0.5,0.2,1.4,0.7,1.8-0.4c-0.3-0.7-1.2-0.3-1.6-0.8
		c-0.2-0.2-0.4-0.5-0.8-0.4c-0.3,1.2-0.5-0.6-0.8,0C95.5,97.7,95.7,98.2,96,98.7z"/>
	<path class="st72" d="M43,135.6c-0.4,0-0.6,0.2-0.6,0.6c0,0.4-0.1,0.8-0.3,1.2c0.1,0.2,0.3,0.3,0.6,0.3c0.1-0.6,0.2-1.2,0.8-1.5
		c0.3-0.2,0.6-0.5,0.5-1.1c-0.1-0.4,0.3,0,0.5,0c0.2,0,0.4,0,0.5-0.3c0-0.2-0.1-0.3-0.4-0.3c-0.3,0-0.7,0-1,0
		C43,134.6,43.5,135.3,43,135.6z"/>
	<path class="st73" d="M106.4,63.4c0.2-0.1,0.4-0.1,0.5-0.2c0.5-0.1,1-0.3,1-0.8c0-0.3-0.4-0.7-1-0.7c-0.5,0-1.1-0.1-1.2,0.6
		c0,0.2-0.1,0.3-0.2,0.5C105.8,63.1,106.2,63.1,106.4,63.4z"/>
	<path class="st74" d="M35.3,135.2c-0.2,0.6-1.2,1.1-0.4,1.7c0.5,0.4,1.3,0.2,1.5-0.3C36.9,135.6,35.7,135.7,35.3,135.2z"/>
	<path class="st75" d="M55.8,103.3c-0.1-0.3-0.3-0.5-0.3-0.9c-0.6-0.1-0.4,0.7-0.9,0.8c-0.5-0.2-0.1-0.9-0.6-1.1
		c0,0.4,0.1,0.9-0.6,0.8c0.2,0.9,0.8,1.5,1.1,2.4c0.3,0,0.5-0.2,0.5-0.5c0.1-0.3-0.3-0.6,0-0.9C55.4,103.8,55.7,103.6,55.8,103.3z"
		/>
	<path class="st76" d="M112.3,107.1c0-0.1,0-0.2,0-0.3c-0.3,0.2-0.4,0.6-0.2,0.7c1,0.6,1.8,1.5,3.1,1.3c0.1-0.6-0.6-0.7-0.7-1.2
		c-0.1-0.2-0.2-0.5-0.4-0.7C113.4,106.3,112.9,107.2,112.3,107.1z"/>
	<path class="st7" d="M134.1,70.1c0.5-0.3,0.9-0.6,0.8-1.2c0-0.3-0.2-0.7-0.6-0.5c-0.5,0.1-1.1,0.2-1,0.9
		C133.3,69.7,133.6,70,134.1,70.1z"/>
	<path class="st77" d="M45.6,140.6c0.4,0,0.8,0,1.2,0c0.3-0.4,0.8-0.2,1.2-0.3c-0.7-0.4-1.1-1-1.5-1.7c0.2,1.4-1,0.6-1.5,0.9
		c0,0.3,0.1,0.5,0.4,0.6C46,140,45.7,140.3,45.6,140.6z"/>
	<path class="st60" d="M104.7,69c-0.3,0-0.6,0.2-0.8,0.1c-0.7-0.2-0.8,0.3-0.8,0.7c-0.1,0.6,0.3,0.4,0.8,0.5c0.5,0,1,0.2,1.5,0.2
		l0.1,0l0.1,0c0-0.1,0.1-0.1,0.1-0.2C105.7,69.6,104.9,69.5,104.7,69z"/>
	<path class="st41" d="M19.5,122.8c-0.3,0.8-1.2,0.9-1.7,1.4c0.1,0.1,0.2,0.3,0.2,0.3c1-0.2,1.2,0.6,1.5,1.1c0-0.6,0.1-1.2,0.3-1.8
		C19.7,123.6,19.9,123.1,19.5,122.8z"/>
	<path class="st34" d="M99.2,118.2c0,0.6,0.8,0.9,0.9,1.5c0.7-0.5,0.9-1.2,1.2-1.9c0.2-0.4-0.1-0.6-0.3-0.8
		C100.5,117.6,100.2,118.4,99.2,118.2z"/>
	<path class="st78" d="M119.5,58.5c-0.4,0-0.7,0.2-0.9,0.6c-0.3,0.6-0.8,0.6-1.4,0.5c-0.6-0.1-0.7-0.6-0.6-1.1
		c-1-0.1-0.8,0.5-0.5,0.9c0.6,0.8,1.5,0.6,2.4,0.4C119.3,59.8,119.7,59.4,119.5,58.5z"/>
	<path class="st60" d="M106.4,63.4c0.2-0.9-0.4-0.6-0.8-0.5c0,0.1,0,0.2,0,0.3c-0.3,0.6-0.1,1.4-0.8,1.8c0.5,0.5,0.9-0.2,1.4-0.1
		c0.6-0.3-0.2-0.9,0.3-1.2C106.2,63.7,106.2,63.6,106.4,63.4z"/>
	<path class="st79" d="M68.3,31.8c0.6,0.3,1.1,0.1,1.2-0.6c0-0.1,0-0.2,0-0.3c-0.6-1.2-1.6-0.9-2.6-0.6c0,0.1,0,0.2,0,0.3
		c0.3,0.4,0.8,0.4,1.3,0.6C68.6,31.3,68.4,31.5,68.3,31.8z"/>
	<path class="st2" d="M97.4,97.8c0.3,0,0,0.7,0.4,0.5c0.5-0.3,0.9,0.2,1.4,0.1c0.7-1.3,0.7-1.3-0.3-1.5
		C98.4,97.3,97.4,96.6,97.4,97.8z"/>
	<path class="st56" d="M96,98.7c0.4-0.5-0.1-1,0-1.4c0.2-0.2,0.5-0.2,0.8-0.4c0.1-0.1,0.2-0.3,0.1-0.5c-0.1-0.1-0.2,0-0.3,0
		c-0.3,0.1-0.6,0-0.8,0.2c-0.4,0.3-1.1,0.4-0.9,1.1C94.9,98.2,95.3,98.6,96,98.7z"/>
	<path class="st35" d="M25,70.2c-0.1,0.6,0.2,1.1,0.4,1.6c0.1,0.2,0.3,0.4,0.6,0.3c0.2-0.1,0.4-0.2,0.3-0.4c-0.4-0.8,0.6-1,0.7-1.6
		C26.3,69.6,25.7,69.9,25,70.2z"/>
	<path class="st80" d="M66.9,74.2c-0.2,0.4-0.6,0.3-0.9,0.3c-0.1-0.1-0.2-0.1-0.3,0c0.1,0.5,0.7,0.5,0.9,0.9c0.4,0,0.8,0,1.1,0
		c0.1,0,0.1-0.1,0.1-0.2c0-0.1,0-0.1-0.1-0.1c0.1-0.3,0.6-0.4,0.6-0.9c-0.2-0.4-0.4-0.6-0.8-0.2C67.3,74.2,67.1,74.2,66.9,74.2z"/>
	<path class="st81" d="M43.6,85.6c-0.4,0.3-1.4,0.2-1.2,1.2c0.3,0.6,0.8,0.9,1.5,0.6C44.4,86.6,44.1,86.1,43.6,85.6z"/>
	<path class="st51" d="M135.2,75.4c1.3,0,1.1-0.9,1.1-1.7c-0.7-0.1-1.2-1.2-2-0.3l0,0C134.3,74.2,134.8,74.8,135.2,75.4z"/>
	<path class="st48" d="M38.9,18.1c0,0,0,0.1,0.1,0.1c0.7,1.6,0.7,1.6,2.6,1.3c0.4-1.1-0.9-0.7-1.1-1.2C40,17.9,39.5,17.8,38.9,18.1
		L38.9,18.1z"/>
	<path class="st82" d="M27.9,96.7c0-0.2,0-0.4,0-0.6c-0.6-0.9-1.5-1-2.4-1c-0.6-0.1-0.7,0.4-0.2,0.8C26,96.5,26.9,96.6,27.9,96.7z"
		/>
	<path class="st62" d="M90.7,133.9c0.5,0,0.9-0.2,0.9-0.7c0-0.5-0.3-0.9-0.8-0.9c-0.5,0-0.8,0.6-0.9,1
		C89.8,133.7,90.3,133.8,90.7,133.9z"/>
	<path class="st83" d="M66.2,99.3c-0.4,0.2-1,0.2-1,0.9c0,0.4,0.4,0.8,0.9,0.8c0.5,0,0.6-0.5,0.7-1C66.9,99.6,66.6,99.4,66.2,99.3z"
		/>
	<path class="st84" d="M40.4,18.7c0.1,0.3,0.3,0.5,0.7,0.4c0.4-0.1,0.4,0.2,0.4,0.5c0.5-0.8,0.7-1.6-0.7-1.8
		c-0.6-0.1-0.4-0.8-0.8-1.1c0,0.4,0,0.8,0,1.2C40.2,18.1,40.4,18.4,40.4,18.7z"/>
	<path class="st34" d="M83.8,118.4c-0.6-0.2-0.5-1.4-1.5-0.9c-0.5,1-0.2,1.7,0.9,2C83.5,119.3,83.9,119,83.8,118.4z"/>
	<path class="st12" d="M6.1,64.3c0.2,0.1,0.4,0.3,0.7,0.3c0.5,0,1-0.2,1.1-0.8c0.1-0.7-0.5-0.7-1-0.7c-0.1,0-0.3,0-0.4,0
		C6.2,63.5,5.7,63.8,6.1,64.3z"/>
	<path class="st29" d="M25.3,95.8c-0.1-0.3-0.3-0.8,0.3-0.5c0.7,0.4,1.6,0.4,2.3,0.8c0.3-0.2,0.3-0.4,0-0.6c-0.4-0.6-1.1-0.5-1.5-1
		c-0.5-0.2-0.9,0.2-1.4,0.4c-0.1,0-0.2,0-0.3,0C24.4,95.5,24.8,95.7,25.3,95.8z"/>
	<path class="st85" d="M25,70.2c0.7,0.5,1.3-0.2,2,0c-0.1-0.5-0.1-1.2-0.9-1.1C25.6,69.2,24.8,69.2,25,70.2z"/>
	<path class="st51" d="M41.5,48.1c0.4,0.3,0.9,0.6,1.4,0.3c0.5-0.4,0.1-0.9,0.1-1.4c-0.4-0.3-0.9-0.7-1.4-0.3c0,0.1,0,0.2,0,0.3
		C41.8,47.3,41.7,47.7,41.5,48.1z"/>
	<path class="st60" d="M111.7,122.5c0.1-0.5,0.2-1,0.6-1.4c0.6-0.8,0.2-1.2-0.6-1.5c-0.2,0.1-0.5,0.2-0.6,0.6
		c0.1,0.3,0.5,0.2,0.8,0.5c-0.8,0.5-0.5,1.2-0.5,1.9C111.5,122.6,111.6,122.5,111.7,122.5z"/>
	<path class="st52" d="M65.7,74.5c0.1,0,0.2,0,0.3,0c0-0.5-0.6-1.1,0.1-1.6c0.4-0.3,0-0.7-0.2-1c-0.6,0.2-0.6,1-1.2,1.2
		C65.3,73.4,64.8,74.4,65.7,74.5z"/>
	<path class="st41" d="M114.3,107.7c-0.3,0.8,0.8,0.6,0.9,1.1c0.9,0.2,0.8-0.7,1.2-1.1c-0.3,0-0.6-0.2-0.9-0.3
		C115,107.3,114.5,106.9,114.3,107.7z"/>
	<path class="st52" d="M106.7,115.5c-0.1-0.8,0.7-0.2,0.9-0.6c0-0.2,0.1-0.5,0.1-0.7c-0.5-0.2-0.7,0.6-1.1,0.4
		c-0.5-0.2-0.8,0.2-1.5,0.1C105.7,115.3,105.9,115.9,106.7,115.5z"/>
	<path class="st2" d="M107.9,70.7c1-0.6,1.1-1.1,0.3-2.3l-0.1,0c-0.6,0.5-1.4,1-0.8,2C107.5,70.6,107.7,70.6,107.9,70.7z"/>
	<path class="st75" d="M42.5,45.6c0.7,0,1.1-0.3,1.4-0.6c0.4-0.4,0.8,0.2,1.2-0.1C44.2,44,43.1,44.3,42.5,45.6z"/>
	<path class="st30" d="M56.4,51.8c-0.2,0.6,0.5,0.3,0.6,0.6c0.1,0.1,0.2,0.1,0.3,0c0.3-0.4,1.2,0.4,1.2-0.6
		c-0.2-0.8-0.5-1.1-1.2-0.4C57,51.6,56.8,51.8,56.4,51.8z"/>
	<path class="st86" d="M66.9,30.3c0.9,0,1.9-0.2,2.6,0.6c-0.1-0.5,0.2-1.1-0.3-1.5c-0.7,0.4-1.1-0.6-1.7-0.3
		C67.8,29.8,67.2,30,66.9,30.3z"/>
	<path class="st87" d="M135.2,75.4c0.2-0.9-0.5-1.4-0.9-2.1c-0.6,0.8-0.2,1.5,0.3,2.1C134.8,75.7,135.1,75.6,135.2,75.4z"/>
	<path class="st88" d="M83.2,119.6c-0.6-0.5-1-1.2-0.9-2c-0.4,0.3-0.8,0.6-0.7,1.2c0,0.2-0.3,0.2-0.5,0.2c0,0.4,0.2,0.6,0.6,0.6
		C82.2,119.6,82.7,119.6,83.2,119.6z"/>
	<path class="st89" d="M133.5,66.7c0.8-0.8,0.8-1,0-1.5c-0.2,0.4-0.4,0.2-0.6,0c-0.1-0.2-0.3-0.5-0.6-0.3c-0.2,0.1-0.3,0.4,0,0.6
		c0.5,0.3,0.3,0.9,0.7,1.2C133.1,66.8,133.3,66.9,133.5,66.7z"/>
	<path class="st90" d="M12.8,39.9c0.5,0.4,1-0.6,1.5,0c0.4-0.3,0.4-0.7,0.5-1.1c0-0.1-0.1-0.3-0.2-0.4C13.4,38.3,13,39,12.8,39.9z"
		/>
	<path class="st53" d="M142.2,67.8c-0.4,0-0.8,0.1-0.8,0.6c0,0.3,0.1,0.8,0.5,0.7c0.4-0.1,1.1-0.1,1-0.7
		C143,68,142.6,67.9,142.2,67.8z"/>
	<path class="st91" d="M140.4,63.3c0,0.4,0,0.8,0.5,0.9c0.5,0.1,0.6-0.3,0.7-0.8c0-0.4-0.2-0.8-0.6-0.8
		C140.5,62.6,140.5,63,140.4,63.3z"/>
	<path class="st92" d="M55.5,128.3c-0.7,0-1.5,0-2-0.6c0.1-0.2-0.1-0.4-0.2-0.5c-0.3-0.5-0.7-0.7-1.3-0.3
		C53.2,128.6,54,128.9,55.5,128.3z"/>
	<path class="st33" d="M14.8,126c-0.1-0.3,0.2-0.6,0.3-0.9c0.1-0.3,0.3-0.6-0.3-0.6c-0.3-0.3,0-1-0.6-1.1c-0.5,0-1.1,0.1-0.5,0.8
		c0.4,0.4,1,0.6,0.5,1.4C14.2,125.7,14.6,125.9,14.8,126z"/>
	<path class="st11" d="M38.1,151.1c0-0.2,0.4-0.6-0.2-0.5c-0.6,0.1-1.1,0.4-1.6-0.1c-0.2,0.2-0.4,0.5-0.8,0.9c0.7-0.3,1,0.9,1.3,0.3
		C37.1,150.8,37.7,151.3,38.1,151.1z"/>
	<path class="st77" d="M91,89.6c0.2,0.4,0.9,0.2,0.9,0.9c0.5,0.5,0.2,1.4,0.9,1.7c0.1-0.8-0.6-1.6-0.2-2.4c0.2-0.3-0.1-0.4-0.3-0.4
		C91.8,89.5,91.5,89.7,91,89.6z"/>
	<path class="st34" d="M58.4,99.5c0,0.1-0.1,0.4-0.1,0.4c0.6,0.2,1.2,0.9,1.9,0.2c-0.3-0.7-0.9-0.8-1.5-1
		C58.5,99.1,58.4,99.3,58.4,99.5z"/>
	<path class="st93" d="M52.3,126c-0.2,0-0.4-0.1-0.5-0.3c-0.3-0.2-0.7-0.5-1-0.8c-0.4,0.6,0.2,1.1-0.1,1.7c0.6,0,1.1-0.5,1.7-0.4
		C52.4,126.3,52.4,126.2,52.3,126C52.3,126.1,52.3,126,52.3,126z"/>
	<path class="st94" d="M88.7,50.1c-0.1-0.6-0.5-0.7-0.9-0.4c-0.5,0.4-0.9,0.9-0.3,1.5C88.2,51.2,88.6,50.7,88.7,50.1z"/>
	<path class="st60" d="M107.9,70.7c-0.1-0.1-0.2-0.2-0.3-0.3c-0.7-0.5-1.3-0.9-2,0l0,0c0.4,0.2,0.7,0.4,1.1,0.6
		C107.2,71.6,107.5,71.1,107.9,70.7z"/>
	<path class="st95" d="M49.5,142.3c-0.1,0.4,0.1,0.8,0.3,1.2c0.4,0,0.6,0.2,0.6,0.6c0.4-0.2,0.7-0.5,0.5-1
		C50.6,142.5,50.1,142.2,49.5,142.3z"/>
	<path class="st36" d="M35.4,82.7c-0.6,0-1.3,0-1.4,0.9c0.3,0.1,0.3,0.3,0.3,0.6c0.3,0.2,0.6-0.5,0.9,0
		C35.4,83.7,35.5,83.2,35.4,82.7z"/>
	<path class="st96" d="M82.6,43.7c0.4-0.6,1.2-0.9,0.9-1.8C82.2,42.2,82.1,42.4,82.6,43.7z"/>
	<path class="st8" d="M88.7,139.7c-0.1-0.7-0.5-1.2-0.9-1.8C87.2,139.4,87.4,139.7,88.7,139.7z"/>
	<path class="st97" d="M96.8,96.3c-0.1,0.1-0.2,0.2-0.2,0.3c-0.3,0.3,0,0.4,0.2,0.6c0.2,0.2,0.4,0.4,0.6,0.6
		c0.2-0.8,1.1-0.3,1.5-0.9c-0.2,0-0.5,0-0.6-0.3C97.8,96.4,97.4,96.1,96.8,96.3z"/>
	<path class="st5" d="M124.5,58.2c0.1,0.7,0.7,0.7,1.2,0.9c0.1-0.1,0.2-0.2,0.3-0.3c0.4-0.8-0.5-0.7-0.8-1
		C124.9,57.5,124.8,58.2,124.5,58.2z"/>
	<path class="st88" d="M54.9,103.9c-0.1,0-0.3-0.1-0.4-0.1c-0.2,0.1-0.1,0.3,0,0.4c0.1,0.2,0.3,0.4,0.4,0.6c0.2,0.4,0.4,0.6,0.9,0.3
		c0.4-0.6,1.1,0.3,1.5-0.3c-0.5-0.5-1.3,0-1.7-0.6C55.4,103.9,55.2,103.9,54.9,103.9z"/>
	<path class="st36" d="M141.6,66.6c0.1-0.1,0.2-0.3,0.4-0.4c0.3-0.2,0.6-0.5,0.4-1c-0.1-0.2-0.2-0.3-0.4-0.3c-0.6,0-0.7,0.4-0.8,0.9
		C141.3,66.1,141.5,66.4,141.6,66.6z"/>
	<path class="st91" d="M48.8,136.5c-0.2,0.1-0.3,0.4-0.1,0.4c0.6,0.1,0.7,0.7,1,1c0-0.6,0.9-1.2,0-1.8
		C49.3,136,49.2,136.7,48.8,136.5z"/>
	<path class="st67" d="M89.6,107.8c0.8-0.2,1.1-0.5,1-1.2c0-0.2-0.3-0.4-0.6-0.3C89.4,106.7,89.6,107.2,89.6,107.8z"/>
	<path class="st14" d="M78.2,135.6c-0.5-0.7-1-0.2-1.5,0c-0.2,0.1-0.1,0.3,0.2,0.4c0.7,0.2,0.2,0.6,0.1,0.9c0.1,0.2,0.3,0.3,0.5,0.3
		C77.7,136.5,77.5,135.8,78.2,135.6z"/>
	<path class="st42" d="M53.8,65.5c0,0.4,0.2,0.7,0.6,0.7c0.5,0,0.5-0.5,0.6-0.8c0.1-0.4-0.3-0.5-0.6-0.5
		C53.9,64.8,53.8,65.1,53.8,65.5z"/>
	<path class="st80" d="M30.2,97.8c0-0.4-0.1-0.8-0.3-1.2c-0.3,0.1-0.4,0.6-0.9,0.6c0,0.4-0.1,0.7,0.4,0.9
		C29.9,98.3,30.1,98.1,30.2,97.8z"/>
	<path class="st62" d="M67.5,29.1c0.3,0.2,0.6,0.4,0.9,0.6c0.4,0.3,0.7,0.1,0.8-0.3c-0.1-0.1-0.4-0.2-0.4-0.3
		C68.3,28.3,67.9,28.4,67.5,29.1z"/>
	<path class="st46" d="M67.8,75.1c0,0.1,0,0.2,0,0.3c0,0.1,0,0.3-0.1,0.4c-0.1,0.3-0.4,0.6-0.1,0.9c0.1,0.1,0.3,0.1,0.4,0.1
		c0.5-0.2,0.3-0.6,0.3-1C68.4,75.4,68.2,75.1,67.8,75.1z"/>
	<path class="st42" d="M124.1,66.4c-0.1-0.4-0.3-0.6-0.7-0.6c-0.4,0-0.4,0.3-0.4,0.6c0,0.4,0.2,0.5,0.6,0.5
		C123.9,66.9,124.1,66.8,124.1,66.4z"/>
	<path class="st98" d="M134.3,73.3c0.4-0.2,0.8-0.2,1.1,0.2c0.3,0.5,0.6,0.2,0.9,0.1C135.5,72.5,135.1,72.5,134.3,73.3z"/>
	<path class="st45" d="M14.2,123.4c0.3,0.3,0.1,0.9,0.6,1.1c-0.1-0.8,0.4-1.5,0.3-2.3C14.8,122.6,13.8,122.5,14.2,123.4z"/>
	<path class="st34" d="M47.4,140.9c0.3,0.9,0.9,1.2,1.8,1.1C48.8,141.2,48.2,140.9,47.4,140.9z"/>
	<path class="st3" d="M79.4,95.2c-0.7,0-1.2,0.2-1.4,0.8c-0.2,0.6,0.3,0.9,0.8,1.2l0,0C78.9,96.5,79.2,95.8,79.4,95.2L79.4,95.2z"/>
	<path class="st66" d="M93.9,99.3c0-0.5-0.2-0.6-0.7-0.4c-0.4,0.1-0.7,0.2-0.5,0.7C93.3,100.1,93.6,99.7,93.9,99.3z"/>
	<path class="st99" d="M20.3,104.8c-0.6-0.1-1.2-0.5-1.8,0c-0.1,0.4-0.5,0.4-0.7,0.9C18.8,105.4,19.5,105.1,20.3,104.8z"/>
	<path class="st38" d="M59.3,86.7c0.1-0.5,0.7-0.5,0.9-0.9c-0.8-0.1-1.6-0.1-2,0.8l0,0C58.6,87,58.9,87.1,59.3,86.7z"/>
	<path class="st55" d="M46.8,36.1c0-0.6-0.7-0.8-0.7-1.4c-0.7,0.7,0.1,1.2-0.1,1.7C46.3,36.5,46.5,36.3,46.8,36.1z"/>
	<path class="st44" d="M14.5,38.5c0,0.1,0,0.2,0,0.3c0.3,0.6,0.7,1,1.5,0.9c0.2-0.2,0.3-0.3,0.1-0.5c-0.4-0.3-0.8-0.6-1.2-0.9
		C14.7,38.3,14.6,38.4,14.5,38.5z"/>
	<path class="st30" d="M35.2,84.1c-0.3-0.3-0.6-0.6-0.9,0c-0.6,0.4-0.1,0.8,0,1.2c0.4-0.1,0-1.2,0.9-0.7
		C35.3,84.7,35.5,84.3,35.2,84.1z"/>
	<path class="st43" d="M31.4,81.8c-0.2-0.4-0.5-0.6-0.9-0.6c-0.2,0.3-0.8,0.4-0.3,0.9C30.6,82,31.1,82.3,31.4,81.8z"/>
	<path class="st100" d="M59.4,89.1c-0.1-0.5-0.2-1-0.9-0.6c0,0.4-0.2,0.9,0.3,1.1C59.1,89.8,59.3,89.5,59.4,89.1z"/>
	<path class="st75" d="M41.6,46.6c0.5-0.1,1,0.2,1.4,0.3c-0.1-0.6-1.2-0.6-1.1-1.4c0,0-0.3-0.1-0.4-0.1c-0.1,0-0.3,0.1-0.2,0.3
		C41.4,46.1,41.5,46.3,41.6,46.6z"/>
	<path class="st101" d="M88.7,50.1c-0.3,0.4-0.7,0.8-1.2,1.2c0.4,0.2,0.7,0.5,1.1,0.1C89,50.9,89,50.5,88.7,50.1z"/>
	<path class="st73" d="M45.6,40.5c0-0.3,0-0.6,0-0.9c-0.7,0.1-1.1,0.5-1.1,1.2c0.2,0,0.4-0.4,0.6,0C45.4,40.9,45.7,41,45.6,40.5z"/>
	<path class="st76" d="M38.1,52.7c0,0.3,0.2,0.5,0.5,0.5c0.4,0,0.5-0.3,0.5-0.6c0-0.3-0.3-0.5-0.6-0.4
		C38.2,52.2,38.1,52.3,38.1,52.7z"/>
	<path class="st58" d="M101.5,42.6c0.6-0.4,0.2-1,0.3-1.5C100.8,41.3,100.8,41.3,101.5,42.6z"/>
	<path class="st102" d="M48.9,41.1c-0.2,0.4-0.7,0.6-0.6,1.2c0.3-0.2,0.8,0,1-0.4c0.1-0.2,0.6-0.3,0.3-0.6
		C49.4,41,49.1,41.1,48.9,41.1z"/>
	<path class="st103" d="M34,95.2c0,0.1,0,0.2,0,0.3c0.6-0.2,1.5,0.1,1.8-0.8C35.1,94.4,34.6,95,34,95.2z"/>
	<path class="st104" d="M38.7,35.9c0-0.2,0-0.6-0.1-0.7c-0.2-0.2-0.4,0.1-0.5,0.3c-0.3,0.4-0.2,0.8-0.2,1.2
		C38.2,36.6,38.5,36.3,38.7,35.9z"/>
	<path class="st49" d="M100.9,115.8c0.3,0,0.7,0.3,0.8,0.1c0.3-0.5-0.1-0.9-0.6-1.4C100.7,114.9,101,115.4,100.9,115.8L100.9,115.8z
		"/>
	<path class="st55" d="M-6.5,60.7c-0.3,0.2-0.6,0.4-0.7,0.8c0,0.1,0.1,0.2,0.3,0.2c0.4,0,0.7-0.2,0.7-0.7
		C-6.2,60.8-6.3,60.7-6.5,60.7z"/>
	<path class="st104" d="M41.5,48.1c0.3,0,0.6,0,0.5-0.4c-0.1-0.3,0.1-0.8-0.5-0.7C41.2,47.3,41.1,47.7,41.5,48.1z"/>
	<path class="st80" d="M57.6,54.4c-0.2-0.9-0.7-0.7-1.2-0.2C56.7,54.8,57.1,54.8,57.6,54.4z"/>
	<path class="st105" d="M125.6,60c-0.5,0-1,0-1.5,0.3l0,0c0.1,0.2,0.2,0.4,0.3,0.6C125.1,60.9,125.4,60.5,125.6,60z"/>
	<path class="st106" d="M43,135.6c1,0,0.2-0.9,0.6-1.2c-0.3-0.1-0.5-0.3-0.9-0.3c-0.1,0.1-0.1,0.1-0.1,0.2c0,0.1,0,0.1,0.1,0.1
		C42.9,134.8,43.1,135.2,43,135.6z"/>
	<path class="st23" d="M114.6,64.7c0.1,0.2,0.2,0.4,0.5,0.4c0.3,0,0.5-0.2,0.5-0.4c0-0.3-0.3-0.3-0.5-0.3
		C114.9,64.3,114.6,64.4,114.6,64.7z"/>
	<path class="st107" d="M126,19.9c0.2,0.2,0.1,0.6,0.5,0.6c0.3,0,0.3-0.3,0.3-0.6c0-0.3-0.2-0.5-0.4-0.5
		C126.1,19.4,126,19.6,126,19.9z"/>
	<path class="st16" d="M116.6,117c0.3,0.1,0.3,0.4,0.3,0.6c0.2-0.3,0.4-0.5,0.6-0.8c0.3-0.5,0-0.6-0.3-0.7
		C116.8,116.3,116.8,116.7,116.6,117z"/>
	<path class="st108" d="M42.2,146.4c0-0.4,0-0.8,0-1.2c-0.3,0.1-0.4,0.6-0.8,0.6c-0.1,0.4,0.2,0.7,0.5,0.9
		C41.9,146.6,42.1,146.5,42.2,146.4z"/>
	<path class="st63" d="M102.6,27.6c0.2,0,0.4-0.1,0.4-0.3c0-0.4-0.3-0.5-0.6-0.4c-0.2,0-0.4,0.2-0.3,0.4
		C102.2,27.5,102.4,27.6,102.6,27.6z"/>
	<path class="st109" d="M34.9,148.1c-0.1-0.3-0.2-0.6-0.2-0.9c-1.3,0.7,0.2,1,0.3,1.4C34.9,148.5,34.9,148.3,34.9,148.1z"/>
	<path class="st110" d="M99.1,5.9c0.3,0,0.5,0.6,0.8,0.3c0.3-0.4,0.1-0.8-0.5-0.9C99.2,5.4,99.1,5.6,99.1,5.9z"/>
	<path class="st111" d="M128,62.4c-0.3,0.5-0.2,0.9,0.1,1.3C128.9,63.1,128.2,62.8,128,62.4z"/>
	<path class="st57" d="M100.6,67.5c0.3-0.5,0.7-1,0-1.4C100.4,66.6,100.1,67.1,100.6,67.5z"/>
	<path class="st112" d="M114.3,112.9c0.1,0.4-0.1,0.9,0.6,0.8c0.2,0,0.2,0.2,0.3,0.4c0.1,0,0.2,0,0.3,0
		C115.6,113.1,114.8,113.2,114.3,112.9z"/>
	<path class="st12" d="M32.3,110c0.5,0,0.9-0.4,1.5-0.3c-0.2-0.3-0.5-0.2-0.7-0.4C32.2,109,32.3,109.5,32.3,110z"/>
	<path class="st95" d="M133.5,66.7c-0.2,0-0.4,0-0.6,0c0.3,0.4,0.3,1,1,1.1C134.1,67.2,133.5,67,133.5,66.7z"/>
	<path class="st65" d="M55.8,105.1c-0.3,0-0.6-0.2-0.9-0.3c-0.1,0.2-0.2,0.4-0.4,0.6C55.2,106.3,55.5,105.4,55.8,105.1z"/>
	<path class="st104" d="M115.2,121.4c-0.7,0.2-0.7,0.9-0.9,1.4C115,122.6,115.3,122.1,115.2,121.4z"/>
	<path class="st23" d="M96.8,96.3c0.5,0,0.9,0.4,1.4,0.3c-0.4-1-1.1-0.6-1.8-0.3C96.6,96.3,96.7,96.3,96.8,96.3z"/>
	<path class="st14" d="M43.9,87.3c-0.6,0.1-1-0.3-1.5-0.6c-0.4,1.4,0.7,0.7,1.2,0.9C43.7,87.5,43.8,87.4,43.9,87.3z"/>
	<path class="st5" d="M52.3,126c0,0.1,0,0.2,0,0.3c-0.1,0.2-0.2,0.4-0.2,0.5c0.5-0.1,0.8,0.3,1.2,0.6C53.6,126.6,53.3,126,52.3,126
		L52.3,126z"/>
	<path class="st69" d="M24.8,87.3c-0.3,0-0.5,0.2-0.5,0.4c0,0.3,0.2,0.4,0.5,0.4c0.2-0.1,0.4-0.2,0.4-0.5
		C25.2,87.4,25,87.3,24.8,87.3z"/>
	<path class="st81" d="M60.2,87.9c-0.4,0.7-0.2,0.9,0.5,0.8c0-0.1,0-0.2,0.1-0.2C60.7,88.2,61,87.5,60.2,87.9z"/>
	<path class="st29" d="M23.8,90.5c0.2-0.2,0.4-0.4,0.6-0.6c0.1-0.4,0.2-0.8,0.3-1.1C23.9,89.1,23.8,89.8,23.8,90.5z"/>
	<path class="st39" d="M131.9,37.7c-0.2,0.1-0.4,0.2-0.4,0.5c0,0.2,0.2,0.3,0.4,0.2c0.2,0,0.3-0.2,0.3-0.4
		C132.3,37.8,132.2,37.7,131.9,37.7z"/>
	<path class="st113" d="M66.9,33.8c0-0.2,0-0.4,0-0.6c0-0.2,0-0.5-0.3-0.5c-0.3,0-0.2,0.3-0.2,0.6c0,0.1,0,0.3,0,0.4
		C66.5,33.8,66.7,33.8,66.9,33.8z"/>
	<path class="st12" d="M58.1,102.7c0.2,0.3,0.3,0.5,0.3,0.8c0.9,0.2,0.6-0.4,0.6-0.8C58.7,102.7,58.4,102.7,58.1,102.7z"/>
	<path class="st2" d="M137.6,103c-0.5,0.2-1,0.3-1.5,0.3C137.1,104.1,137.1,104.1,137.6,103z"/>
	<path class="st0" d="M107.6,116.1c0.2,0,0.4-0.1,0.5-0.1c0.2-0.1,0.3-0.2,0.3-0.4c-0.1-0.3-0.3-0.2-0.6-0.1
		c-0.2,0.1-0.4,0.1-0.5,0.1C107.4,115.7,107.5,115.9,107.6,116.1z"/>
	<path class="st69" d="M91.3,93.1c-0.7-0.8-0.8-0.7-1.2,0.3C90.5,93.3,90.9,93.2,91.3,93.1z"/>
	<path class="st18" d="M35.5,81.8c-0.3,0-0.3-0.5-0.8-0.5c0.2,0.4-0.1,1,0.7,1.1C35.5,82.2,35.8,82,35.5,81.8z"/>
	<path class="st72" d="M42.7,134.4c0-0.1,0-0.2,0-0.3c-0.6-0.1-0.8,0.3-1.2,0.6C42.1,135.1,42.4,134.8,42.7,134.4z"/>
	<path class="st114" d="M124.5,62.8c0.1,0.2,0.2,0.3,0.4,0.2c0.2-0.1,0.3-0.2,0.3-0.4c0-0.2-0.2-0.3-0.4-0.3
		C124.5,62.4,124.5,62.6,124.5,62.8z"/>
	<path class="st115" d="M6.1,64.3c0.1-0.4,0.2-0.8,0.3-1.1c-0.3,0.2-0.9,0.2-0.8,0.8C5.6,64.3,5.9,64.3,6.1,64.3z"/>
	<path class="st5" d="M132.9,65.2c0,0.4-0.1,1,0.6,0.8c0.5-0.1,0.1-0.5,0-0.8C133.3,65.2,133.1,65.2,132.9,65.2z"/>
	<path class="st80" d="M112.8,115.5c0,0.3,0,0.6,0,0.9c0.3,0.3,0.4,0.8-0.1,0.7c-0.9-0.2-0.8,0.3-0.8,0.8c0,0.4-0.1,0.7-0.3,1.1
		c0,0.2,0.2,0.2,0.3,0.3c0.7-0.8,1.7-1.4,1.7-2.6c0.1-0.2,0.1-0.5,0.2-0.7c0.3-0.9,0.3-0.9-0.8-0.8
		C113,115.3,112.9,115.4,112.8,115.5z"/>
	<path class="st116" d="M112,119.3c-0.1-0.1-0.2-0.2-0.3-0.3c-0.7-0.4-1.4-0.1-2.2-0.4c-0.6-0.2-0.6,0.4-0.7,0.8
		c-0.1,0.3-0.1,0.6,0.5,0.6c0.3,0,0.6,0.3,0.8,0c0.5-0.7,0.7,0.1,1,0.1c0.3-0.1,0.5-0.3,0.6-0.6c-0.1,0-0.2-0.2-0.1-0.2
		C111.7,119.3,111.8,119.3,112,119.3z"/>
	<path class="st117" d="M109.4,113.8c0,0.6,0.5,0.9,0.5,1.4c0.8,0.3,0.6-0.8,1.2-0.9C110.8,113.4,110,113.8,109.4,113.8z"/>
	<path class="st82" d="M26.4,94.6c0,0.5,0.1,0.9,0.8,0.7c0.2-0.1,0.4,0.1,0.7,0.2c-0.2-1.2,1-1.1,1.5-1.7c-0.4-1.2,0.6-1,1.2-1.2
		c0.1,0,0.2,0,0.3,0c0-0.2,0-0.4,0-0.6c-0.2-0.3-0.2-0.6,0-0.9c-0.1-0.5,0.4-0.6,0.6-0.9c-0.2-0.2-0.4-0.2-0.6,0
		c-0.3,0.3-0.6,0.7-0.9,0c-0.3-0.6-0.6-0.6-0.9,0c-0.1,0.2,0.1,0.6-0.1,0.6c-0.3,0-0.3-0.4-0.4-0.6c-0.2-0.5-0.4-0.6-0.7,0
		c-0.3,0.5,0,1.2-0.7,1.5c0.2,0.6-1,0.7-0.6,1.5c-0.2,0.4-0.6,0.3-0.9,0.3C25.8,93.8,25.8,94.4,26.4,94.6z"/>
	<path class="st29" d="M26.4,93.1c0,0,0-0.1,0-0.1c1-0.3,1-0.3,0.6-1.3c-0.6-0.7-1.3-1.4-1-2.5c-0.4,0.4-1.1,0.1-1.3,0.8
		c0.5,0,0.8,0.4,0.7,0.7c-0.1,0.7-0.8-0.1-1.1,0.3c0.1,0.7,1.1,0.2,1.3,0.9C25.8,92.3,25.6,93.1,26.4,93.1z"/>
	<path class="st11" d="M28.5,90.2c-0.4,0.3-0.4,0.8,0,1.1c0.2,0.2,0.8,0.2,0.9,0c0.2-0.3,0.1-0.8-0.3-1.1
		C28.9,90.2,28.7,90.2,28.5,90.2z"/>
	<path class="st118" d="M30.8,90.2c0.2,0,0.4,0,0.6,0c0.2-0.1,0.6-0.1,0.3-0.3c-0.4-0.2-0.3-0.8-0.8-1
		C30.7,89.3,30.9,89.8,30.8,90.2z"/>
	<path class="st82" d="M31.1,92.6c0.1,0,0.2,0,0.3,0c0.3-0.1,0.8,0.2,1.1-0.5C31.9,91.9,31.4,91.9,31.1,92.6z"/>
	<path class="st26" d="M30.8,91.1c-0.3,0-0.7-0.1-0.7,0.2c-0.1,0.5,0.5,0.5,0.7,0.7C30.9,91.7,31.3,91.4,30.8,91.1z"/>
	<path class="st70" d="M116.1,119.6c-0.6-0.4-1-0.9-1.5-0.4c-0.6,0.6-0.2,0.9,0.5,1C115,119.7,115.7,119.8,116.1,119.6z"/>
	<path class="st47" d="M105.6,70.4c0.7-0.3,1.4-0.3,2,0c-0.2-0.4-0.4-0.7,0.1-1.1c0.3-0.2,0.5-0.5,0.5-0.9c-0.1-0.1-0.2-0.2-0.3-0.3
		c-0.1-0.1-0.2-0.1-0.4-0.1c-0.6,0-1,0.6-1.6,0.1c0,0.8-0.5,0.9-1.2,0.9c0,0.2-0.3,0.5,0.1,0.6C105.3,69.7,105.3,70.1,105.6,70.4z"
		/>
	<path class="st119" d="M104.4,67.5c-0.6-0.4-0.1-0.8,0-1.2c-0.2,0-0.4,0-0.6,0c-0.2,0.4-0.4,0.9-0.3,1.3c0.1,0.4,0.5,0.4,0.8,0.4
		C104.7,68,104.4,67.7,104.4,67.5z"/>
	<path class="st60" d="M105.8,68.1c0.7,0.6,1.4-0.1,2,0C107.2,67.6,106.5,67.3,105.8,68.1z"/>
	<path class="st104" d="M79.4,95.2c-0.9,0.5-1,1.2-0.6,2c0.4,0,0.8,0,1.1,0c0.4-0.2,0.4-0.6,0.6-0.9c0.2-0.2,0.4-0.5,0.8-0.8
		C80.6,95.6,79.9,95.8,79.4,95.2z"/>
	<path class="st42" d="M80.6,96.3c-0.4,0.2-0.4,0.6-0.6,0.9c0.5,0,1,0.6,1.6,0.1C81.6,96.6,80.4,97.2,80.6,96.3z"/>
	<path class="st89" d="M53.8,126.6c0.4-0.4,0.9-0.4,1.4-0.3c0.5,0.1,0.9-0.2,0.8-0.7c-0.1-0.4-0.3-0.7-0.9-0.4
		c-0.4,0.3-1.3-0.4-1.6,0.5C53.2,126.1,53.4,126.4,53.8,126.6z"/>
	<path class="st120" d="M53.8,126.6c-0.1-0.3-0.3-0.5-0.3-0.9c0-0.1-0.1-0.3-0.1-0.4c-0.3,0.3-0.9,0.1-1.1,0.7
		c0.6,0.3,0.9,0.7,0.9,1.4c0.1,0.1,0.2,0.2,0.3,0.3c0.3-0.2,0.7-0.3,0.2-0.7C53.5,126.9,53.8,126.7,53.8,126.6z"/>
	<path class="st121" d="M57.9,116.4c0.1,0,0.3,0,0.4-0.1c0.3-0.3,0.9-0.3,0.8-0.8c-0.1-0.6-0.5-0.9-1.1-0.9
		C57.7,115.2,57.9,115.8,57.9,116.4L57.9,116.4z"/>
	<path class="st14" d="M45.9,142.6c-0.2-0.4-0.6-0.3-0.9-0.3c-0.3-0.2-0.4,0.1-0.6,0.3c0,0.2-0.4,0.7-0.1,0.7c0.4,0,1.1,0.6,1.3-0.4
		C45.8,142.8,45.9,142.8,45.9,142.6z"/>
	<path class="st45" d="M47.4,145.5c-0.2-1.1-0.9-1.1-1.7-0.9c0.1,0.2,0,0.8,0.2,0.6C46.6,144.5,46.9,145.3,47.4,145.5z"/>
	<path class="st4" d="M44.5,142.6c0.2-0.1,0.4-0.2,0.6-0.3c0-0.3,0.6-0.3,0.4-0.6c-0.2-0.4-0.5-0.5-0.9-0.2
		C44.5,141.8,44.5,142.2,44.5,142.6z"/>
	<path class="st64" d="M45.9,142.6c-0.1,0.1-0.2,0.2-0.3,0.3c0.1,0.1,0.2,0.2,0.3,0.3c0.7,0.1,0.9-0.2,0.9-0.9
		C46.5,142.4,46.3,142.6,45.9,142.6z"/>
	<path class="st80" d="M30.5,92.6c-0.1-0.3-0.3-0.2-0.5-0.1c-0.4,0.2-0.9-0.6-1.1-0.1c-0.2,0.4,0.1,1,0.4,1.4v0
		c0.3-0.4,0.9-0.2,1.2-0.6C30.5,92.9,30.5,92.8,30.5,92.6z"/>
	<path class="st82" d="M30.5,93.1c-0.5,0-1,0-1.2,0.6C29.8,93.6,30.5,94.1,30.5,93.1z"/>
	<path class="st52" d="M37.2,148.1c-0.6-0.4-1-0.2-1.4,0.3c0,0.2,0.1,0.5,0.2,0.4C36.3,148.5,36.9,148.5,37.2,148.1z"/>
	<path class="st47" d="M38.1,146.7c0,0,0-0.1,0.1-0.1c0.3-0.5,0.4-0.9-0.3-1.1c-0.3-0.1-0.5-0.2-0.7,0.2c-0.3,0.6-0.1,1,0.6,1.1
		C37.9,146.7,38,146.7,38.1,146.7z"/>
	<path class="st55" d="M38.1,146.7c-0.1,0-0.2,0-0.3,0c-0.1,0.3-0.3,0.3-0.6,0.3c0,0.2,0,0.5,0.3,0.6c0.6-0.1,1.1-0.5,1.7-0.6l0,0
		C39,146.2,38.5,146.7,38.1,146.7z"/>
	<path class="st0" d="M112.8,115.5c0.1-0.1,0.2-0.2,0.3-0.3c-0.2-0.3-0.5-0.5-0.8-0.4c-0.5,0.2-0.1,0.7,0,0.9
		C112.5,116.2,112.6,115.5,112.8,115.5z"/>
	<path class="st122" d="M112.3,107.1c0.2,0.4,0.4,0.2,0.7,0.1c0.3-0.2,0.7-0.3,1-0.1c0.6-0.3,1-0.7,0.6-1.4
		c-0.3-0.1-0.6-0.4-0.8-0.1C113.4,106.2,112.4,106.3,112.3,107.1z"/>
	<path class="st90" d="M114.6,105.6c0.2,0.7-0.6,0.9-0.6,1.4c0,0.2,0,0.5,0.3,0.6c0.3-0.3,0.8,0.1,1.2-0.3c-0.3-0.4-0.3-0.9-0.3-1.5
		C115,105.8,114.8,105.7,114.6,105.6z"/>
	<path class="st123" d="M16,39.6c-0.5-0.3-1-0.6-1.5-0.9c-0.2,0.4-0.3,0.7-0.3,1.2c0.1,0.2,0.4,0.5,0.5,0.4c0.4-0.5,0.8-0.3,1.2-0.2
		C16.3,40.2,16,39.8,16,39.6z"/>
	<path class="st49" d="M32.4,82.5c-0.6,0-0.7,0.3-0.6,0.8c0,0.1,0.1,0.2,0.2,0.1C32.5,83.3,32.1,82.8,32.4,82.5z"/>
	<path class="st41" d="M17.7,124.3c0.3-0.6,0-1-0.6-1.2c-0.2,0.3-0.9,0.2-0.7,0.8c0,0.1,0,0.2,0.1,0.3
		C16.9,124.3,17.3,124.3,17.7,124.3z"/>
	<path class="st124" d="M16.6,124.3c0-0.1,0-0.2,0-0.3c-0.1-0.1-0.2-0.1-0.3,0c-0.1,0.4-0.7,0.6-0.6,1.2c0.4,0.1,0.8-0.1,1.2-0.3
		C16.8,124.6,16.7,124.5,16.6,124.3z"/>
	<path class="st125" d="M26.4,94.6c-0.3-0.4-0.6-0.8-0.9-1.2c-0.1,0-0.2,0-0.3,0C25,93.5,24.8,93.7,25,94c0.5,0.3,0.1,0.6,0,0.9
		C25.5,95,25.9,94.6,26.4,94.6z"/>
	<path class="st29" d="M25,94c0.1-0.2,0.2-0.4,0.3-0.6c-0.2-0.2-0.3-0.8-0.5-0.7C24.3,93.2,24.7,93.6,25,94z"/>
	<path class="st13" d="M39.2,146.9c-0.7-0.1-1.2,0.2-1.7,0.6c0.1,0.3,0.3,0.3,0.6,0.3C38.2,147.2,39,147.4,39.2,146.9z"/>
	<path class="st13" d="M57.3,52.4c-0.1,0-0.2,0-0.3,0c-0.2,0.4-0.8,0.4-1,0.9C56.6,53.2,57.4,53.6,57.3,52.4z"/>
	<path class="st33" d="M77,133.3c-1.3-0.2-1.5,0.1-1.2,1.4C76.2,134.2,77.3,134.3,77,133.3z"/>
	<path class="st126" d="M16.3,124c0.1,0,0.2,0,0.3,0c-0.2-0.5,0.8-0.3,0.6-0.9c-0.1,0-0.2,0-0.3,0c-0.6-0.2-1.2-0.3-1.4,0.6
		C15.7,124,16.1,123.5,16.3,124z"/>
	<path class="st55" d="M45.6,40.5c-0.1,0.3-0.3,0.3-0.6,0.3c0.5,0.9,1,0.3,1.5,0C46.2,40.7,46,40.5,45.6,40.5z"/>
	<path class="st64" d="M40.4,18.7c0.6-0.5,0-0.7-0.3-0.9c-0.5-0.2-0.9-0.1-1.2,0.3C39.5,18,40.1,18.1,40.4,18.7z"/>
	<path class="st12" d="M124.2,60.3c0.1-0.5,0.2-1-0.1-1.5C123.7,59.3,123.6,59.8,124.2,60.3L124.2,60.3z"/>
	<path class="st47" d="M67.2,72.8c0.2,0,0.4,0,0.6,0c0.3-0.2,0.5-0.6,0.1-0.8C67.3,71.9,67.2,72.4,67.2,72.8z"/>
	<path class="st76" d="M59.3,86.7c-0.4,0-0.8,0-1.1,0c0.2,0.5,0.5,0.8,1.1,0.8C59.3,87.3,59.3,87,59.3,86.7z"/>
	<path class="st8" d="M54.9,103.9c0.1,0.3,0.4,0.3,0.6,0.3c0.2-0.2,0.6-0.5,0.3-0.9C55.5,103.5,55.1,103.5,54.9,103.9z"/>
	<path class="st34" d="M96.8,97.2c-0.1-0.2-0.2-0.4-0.2-0.6c-0.4,0-0.7,0.1-0.7,0.6c0.1,0.1,0.2,0.1,0.2,0.2
		c0.2,0.2,0.2,0.6,0.6,0.5C96.8,97.8,96.8,97.4,96.8,97.2z"/>
</g>
</svg>
